%TF.GenerationSoftware,KiCad,Pcbnew,(6.0.7)*%
%TF.CreationDate,2023-02-05T18:06:45+01:00*%
%TF.ProjectId,projekt_fizike_panel_diellor,70726f6a-656b-4745-9f66-697a696b655f,rev?*%
%TF.SameCoordinates,Original*%
%TF.FileFunction,Soldermask,Top*%
%TF.FilePolarity,Negative*%
%FSLAX46Y46*%
G04 Gerber Fmt 4.6, Leading zero omitted, Abs format (unit mm)*
G04 Created by KiCad (PCBNEW (6.0.7)) date 2023-02-05 18:06:45*
%MOMM*%
%LPD*%
G01*
G04 APERTURE LIST*
%ADD10C,0.000000*%
%ADD11C,1.001600*%
%ADD12C,1.200800*%
%ADD13C,0.812800*%
%ADD14C,0.850800*%
%ADD15C,1.901600*%
%ADD16C,0.650800*%
%ADD17C,0.900800*%
%ADD18C,1.550800*%
%ADD19C,0.700800*%
%ADD20C,0.990600*%
G04 APERTURE END LIST*
D10*
G36*
X88049100Y-102557580D02*
G01*
X86347310Y-102557580D01*
X86347310Y-101556830D01*
X88049100Y-101556830D01*
X88049100Y-102557580D01*
G37*
G36*
X111876840Y-71399410D02*
G01*
X109976930Y-71399410D01*
X109976930Y-68696840D01*
X111876840Y-68696840D01*
X111876840Y-71399410D01*
G37*
D11*
X87548220Y-104597200D02*
X86848220Y-104597200D01*
D12*
X155870610Y-69585340D02*
G75*
G03*
X155870610Y-69585340I-600400J0D01*
G01*
D13*
X87858610Y-86436200D02*
G75*
G03*
X87858610Y-86436200I-406400J0D01*
G01*
D14*
X118757650Y-80544420D02*
G75*
G03*
X118757650Y-80544420I-425400J0D01*
G01*
X108137410Y-94260420D02*
G75*
G03*
X108137410Y-94260420I-425400J0D01*
G01*
D10*
G36*
X145618210Y-89941410D02*
G01*
X144094210Y-89941410D01*
X144094210Y-88417410D01*
X145618210Y-88417410D01*
X145618210Y-89941410D01*
G37*
D13*
X102873560Y-101168200D02*
G75*
G03*
X102873560Y-101168200I-406400J0D01*
G01*
D10*
G36*
X145618210Y-84963000D02*
G01*
X144094210Y-84963000D01*
X144094210Y-83439000D01*
X145618210Y-83439000D01*
X145618210Y-84963000D01*
G37*
D11*
X87548220Y-95707200D02*
X86848220Y-95707200D01*
D14*
X133640790Y-95199200D02*
G75*
G03*
X133640790Y-95199200I-425400J0D01*
G01*
D11*
X87548220Y-112217200D02*
X86848220Y-112217200D01*
D10*
G36*
X145618210Y-87452200D02*
G01*
X144094210Y-87452200D01*
X144094210Y-85928200D01*
X145618210Y-85928200D01*
X145618210Y-87452200D01*
G37*
D14*
X123140680Y-95199200D02*
G75*
G03*
X123140680Y-95199200I-425400J0D01*
G01*
D15*
X113467140Y-69648130D02*
X113467140Y-70448120D01*
X116047270Y-69658030D02*
X116047270Y-70458030D01*
D16*
X103188550Y-86182200D02*
G75*
G03*
X103188550Y-86182200I-325400J0D01*
G01*
D17*
X123907610Y-102184200D02*
G75*
G03*
X123907610Y-102184200I-450400J0D01*
G01*
D16*
X98782660Y-77800200D02*
G75*
G03*
X98782660Y-77800200I-325400J0D01*
G01*
D10*
G36*
X88049100Y-110177580D02*
G01*
X86347310Y-110177580D01*
X86347310Y-109176830D01*
X88049100Y-109176830D01*
X88049100Y-110177580D01*
G37*
D13*
X87858610Y-88976200D02*
G75*
G03*
X87858610Y-88976200I-406400J0D01*
G01*
D14*
X110557520Y-80544420D02*
G75*
G03*
X110557520Y-80544420I-425400J0D01*
G01*
D11*
X87548220Y-110947200D02*
X86848220Y-110947200D01*
D18*
X130137610Y-71577200D02*
G75*
G03*
X130137610Y-71577200I-775400J0D01*
G01*
D19*
X127934610Y-85563210D02*
G75*
G03*
X127934610Y-85563210I-350400J0D01*
G01*
D14*
X108518410Y-101499420D02*
G75*
G03*
X108518410Y-101499420I-425400J0D01*
G01*
D16*
X103442550Y-108915200D02*
G75*
G03*
X103442550Y-108915200I-325400J0D01*
G01*
D13*
X87731610Y-80213200D02*
G75*
G03*
X87731610Y-80213200I-406400J0D01*
G01*
D16*
X95988660Y-93802200D02*
G75*
G03*
X95988660Y-93802200I-325400J0D01*
G01*
D19*
X127934610Y-79943200D02*
G75*
G03*
X127934610Y-79943200I-350400J0D01*
G01*
D16*
X96242660Y-108915200D02*
G75*
G03*
X96242660Y-108915200I-325400J0D01*
G01*
X105982550Y-77800200D02*
G75*
G03*
X105982550Y-77800200I-325400J0D01*
G01*
D11*
X87548220Y-96977200D02*
X86848220Y-96977200D01*
D14*
X108264410Y-107722420D02*
G75*
G03*
X108264410Y-107722420I-425400J0D01*
G01*
D16*
X103188550Y-93802200D02*
G75*
G03*
X103188550Y-93802200I-325400J0D01*
G01*
D13*
X87731610Y-82753200D02*
G75*
G03*
X87731610Y-82753200I-406400J0D01*
G01*
D16*
X95988660Y-86182200D02*
G75*
G03*
X95988660Y-86182200I-325400J0D01*
G01*
D12*
X155870610Y-74585330D02*
G75*
G03*
X155870610Y-74585330I-600400J0D01*
G01*
D14*
X118764510Y-107722420D02*
G75*
G03*
X118764510Y-107722420I-425400J0D01*
G01*
D18*
X145377610Y-71577200D02*
G75*
G03*
X145377610Y-71577200I-775400J0D01*
G01*
D12*
X91100610Y-74585330D02*
G75*
G03*
X91100610Y-74585330I-600400J0D01*
G01*
D20*
X121100600Y-87402420D02*
G75*
G03*
X121100600Y-87402420I-495300J0D01*
G01*
D19*
X127934610Y-87563200D02*
G75*
G03*
X127934610Y-87563200I-350400J0D01*
G01*
X127934610Y-77943210D02*
G75*
G03*
X127934610Y-77943210I-350400J0D01*
G01*
D20*
X108100370Y-87402420D02*
G75*
G03*
X108100370Y-87402420I-495300J0D01*
G01*
D14*
X119018510Y-101499420D02*
G75*
G03*
X119018510Y-101499420I-425400J0D01*
G01*
D12*
X91100610Y-69585340D02*
G75*
G03*
X91100610Y-69585340I-600400J0D01*
G01*
D11*
X87548220Y-103327200D02*
X86848220Y-103327200D01*
D14*
X118637510Y-94260420D02*
G75*
G03*
X118637510Y-94260420I-425400J0D01*
G01*
D13*
X96973650Y-101168200D02*
G75*
G03*
X96973650Y-101168200I-406400J0D01*
G01*
D10*
G36*
X88049100Y-94937580D02*
G01*
X86347310Y-94937580D01*
X86347310Y-93936830D01*
X88049100Y-93936830D01*
X88049100Y-94937580D01*
G37*
D17*
X131907600Y-102184200D02*
G75*
G03*
X131907600Y-102184200I-450400J0D01*
G01*
M02*
