%TF.GenerationSoftware,KiCad,Pcbnew,(6.0.7)*%
%TF.CreationDate,2023-02-05T18:06:45+01:00*%
%TF.ProjectId,projekt_fizike_panel_diellor,70726f6a-656b-4745-9f66-697a696b655f,rev?*%
%TF.SameCoordinates,Original*%
%TF.FileFunction,Copper,L1,Top*%
%TF.FilePolarity,Positive*%
%FSLAX46Y46*%
G04 Gerber Fmt 4.6, Leading zero omitted, Abs format (unit mm)*
G04 Created by KiCad (PCBNEW (6.0.7)) date 2023-02-05 18:06:45*
%MOMM*%
%LPD*%
G01*
G04 APERTURE LIST*
%TA.AperFunction,NonConductor*%
%ADD10C,0.800000*%
%TD*%
%TA.AperFunction,NonConductor*%
%ADD11C,0.939800*%
%TD*%
%TA.AperFunction,NonConductor*%
%ADD12C,1.150000*%
%TD*%
%TA.AperFunction,NonConductor*%
%ADD13C,0.650000*%
%TD*%
%TA.AperFunction,NonConductor*%
%ADD14C,0.600000*%
%TD*%
%TA.AperFunction,NonConductor*%
%ADD15C,0.762000*%
%TD*%
%TA.AperFunction,NonConductor*%
%ADD16C,0.000000*%
%TD*%
%TA.AperFunction,NonConductor*%
%ADD17C,1.500000*%
%TD*%
%TA.AperFunction,NonConductor*%
%ADD18C,0.850000*%
%TD*%
%TA.AperFunction,NonConductor*%
%ADD19C,0.305000*%
%TD*%
%TA.AperFunction,ViaPad*%
%ADD20C,2.100000*%
%TD*%
%TA.AperFunction,Conductor*%
%ADD21C,0.254000*%
%TD*%
%TA.AperFunction,Conductor*%
%ADD22C,0.900000*%
%TD*%
%TA.AperFunction,Conductor*%
%ADD23C,1.800000*%
%TD*%
G04 APERTURE END LIST*
D10*
X108239010Y-107722420D02*
G75*
G03*
X108239010Y-107722420I-400000J0D01*
G01*
D11*
X121075200Y-87402420D02*
G75*
G03*
X121075200Y-87402420I-469900J0D01*
G01*
D12*
X91075210Y-74585330D02*
G75*
G03*
X91075210Y-74585330I-575000J0D01*
G01*
D13*
X127909210Y-77943210D02*
G75*
G03*
X127909210Y-77943210I-325000J0D01*
G01*
D10*
X123115280Y-95199200D02*
G75*
G03*
X123115280Y-95199200I-400000J0D01*
G01*
D12*
X155845210Y-69585340D02*
G75*
G03*
X155845210Y-69585340I-575000J0D01*
G01*
D10*
X133615390Y-95199200D02*
G75*
G03*
X133615390Y-95199200I-400000J0D01*
G01*
X118993110Y-101499420D02*
G75*
G03*
X118993110Y-101499420I-400000J0D01*
G01*
D13*
X127909210Y-85563210D02*
G75*
G03*
X127909210Y-85563210I-325000J0D01*
G01*
D14*
X103163150Y-93802200D02*
G75*
G03*
X103163150Y-93802200I-300000J0D01*
G01*
D10*
X108112010Y-94260420D02*
G75*
G03*
X108112010Y-94260420I-400000J0D01*
G01*
D15*
X96948250Y-101168200D02*
G75*
G03*
X96948250Y-101168200I-381000J0D01*
G01*
X87833210Y-86436200D02*
G75*
G03*
X87833210Y-86436200I-381000J0D01*
G01*
D16*
G36*
X87998210Y-94887200D02*
G01*
X86398210Y-94887200D01*
X86398210Y-93987200D01*
X87998210Y-93987200D01*
X87998210Y-94887200D01*
G37*
D15*
X87833210Y-88976200D02*
G75*
G03*
X87833210Y-88976200I-381000J0D01*
G01*
D14*
X105957150Y-77800200D02*
G75*
G03*
X105957150Y-77800200I-300000J0D01*
G01*
X98757260Y-77800200D02*
G75*
G03*
X98757260Y-77800200I-300000J0D01*
G01*
X95963260Y-93802200D02*
G75*
G03*
X95963260Y-93802200I-300000J0D01*
G01*
D15*
X87706210Y-80213200D02*
G75*
G03*
X87706210Y-80213200I-381000J0D01*
G01*
D16*
G36*
X87998210Y-102507200D02*
G01*
X86398210Y-102507200D01*
X86398210Y-101607200D01*
X87998210Y-101607200D01*
X87998210Y-102507200D01*
G37*
D10*
X118732250Y-80544420D02*
G75*
G03*
X118732250Y-80544420I-400000J0D01*
G01*
D15*
X87706210Y-82753200D02*
G75*
G03*
X87706210Y-82753200I-381000J0D01*
G01*
D14*
X95963260Y-86182200D02*
G75*
G03*
X95963260Y-86182200I-300000J0D01*
G01*
D11*
X108074970Y-87402420D02*
G75*
G03*
X108074970Y-87402420I-469900J0D01*
G01*
D16*
G36*
X111827190Y-71348200D02*
G01*
X110027190Y-71348200D01*
X110027190Y-68748200D01*
X111827190Y-68748200D01*
X111827190Y-71348200D01*
G37*
G36*
X145567410Y-89890610D02*
G01*
X144145010Y-89890610D01*
X144145010Y-88468210D01*
X145567410Y-88468210D01*
X145567410Y-89890610D01*
G37*
D10*
X108493010Y-101499420D02*
G75*
G03*
X108493010Y-101499420I-400000J0D01*
G01*
D13*
X127909210Y-79943200D02*
G75*
G03*
X127909210Y-79943200I-325000J0D01*
G01*
D17*
X130112210Y-71577200D02*
G75*
G03*
X130112210Y-71577200I-750000J0D01*
G01*
D14*
X103417150Y-108915200D02*
G75*
G03*
X103417150Y-108915200I-300000J0D01*
G01*
D18*
X131882200Y-102184200D02*
G75*
G03*
X131882200Y-102184200I-425000J0D01*
G01*
D16*
G36*
X145567410Y-84912200D02*
G01*
X144145010Y-84912200D01*
X144145010Y-83489800D01*
X145567410Y-83489800D01*
X145567410Y-84912200D01*
G37*
D14*
X96217260Y-108915200D02*
G75*
G03*
X96217260Y-108915200I-300000J0D01*
G01*
D12*
X91075210Y-69585340D02*
G75*
G03*
X91075210Y-69585340I-575000J0D01*
G01*
D10*
X118612110Y-94260420D02*
G75*
G03*
X118612110Y-94260420I-400000J0D01*
G01*
D14*
X103163150Y-86182200D02*
G75*
G03*
X103163150Y-86182200I-300000J0D01*
G01*
D15*
X102848160Y-101168200D02*
G75*
G03*
X102848160Y-101168200I-381000J0D01*
G01*
D10*
X110532120Y-80544420D02*
G75*
G03*
X110532120Y-80544420I-400000J0D01*
G01*
D18*
X123882210Y-102184200D02*
G75*
G03*
X123882210Y-102184200I-425000J0D01*
G01*
D16*
G36*
X87998210Y-110127200D02*
G01*
X86398210Y-110127200D01*
X86398210Y-109227200D01*
X87998210Y-109227200D01*
X87998210Y-110127200D01*
G37*
D13*
X127909210Y-87563200D02*
G75*
G03*
X127909210Y-87563200I-325000J0D01*
G01*
D17*
X145352210Y-71577200D02*
G75*
G03*
X145352210Y-71577200I-750000J0D01*
G01*
D16*
G36*
X145567410Y-87401400D02*
G01*
X144145010Y-87401400D01*
X144145010Y-85979000D01*
X145567410Y-85979000D01*
X145567410Y-87401400D01*
G37*
D10*
X118739110Y-107722420D02*
G75*
G03*
X118739110Y-107722420I-400000J0D01*
G01*
D19*
X143402490Y-86394020D02*
G75*
G03*
X143402490Y-86394020I-152500J0D01*
G01*
D12*
X155845210Y-74585330D02*
G75*
G03*
X155845210Y-74585330I-575000J0D01*
G01*
D20*
X163576000Y-64516000D03*
X163576000Y-115316000D03*
X82804000Y-115316000D03*
X82804000Y-64008000D03*
D21*
X127584280Y-77943180D02*
X123932520Y-77943180D01*
X101085220Y-110947180D02*
X103117220Y-108915180D01*
X115048870Y-68466440D02*
X113467220Y-70048100D01*
X127296250Y-89279960D02*
X90296070Y-89279960D01*
X92854350Y-92454710D02*
X101515750Y-92454710D01*
X114930760Y-104313970D02*
X118339190Y-107722400D01*
X104254380Y-72003140D02*
X114102220Y-72003140D01*
X114102220Y-72003140D02*
X116047350Y-70058010D01*
X144856280Y-84200980D02*
X144856280Y-85193360D01*
D22*
X87548220Y-104597200D02*
X86848220Y-104597200D01*
D21*
X144912420Y-79943180D02*
X127584280Y-79943180D01*
X96567330Y-101168180D02*
X94408330Y-103327180D01*
X94408330Y-103327180D02*
X87198280Y-103327180D01*
D22*
X87548220Y-96977200D02*
X86848220Y-96977200D01*
D21*
X119294740Y-99268770D02*
X130766140Y-99268770D01*
D22*
X87548220Y-112217200D02*
X86848220Y-112217200D01*
D21*
X87198280Y-96977180D02*
X96085490Y-96977180D01*
D23*
X113467140Y-69648130D02*
X113467140Y-70448120D01*
D21*
X98457340Y-77800180D02*
X104254380Y-72003140D01*
X116415140Y-101499400D02*
X108093080Y-101499400D01*
X143863900Y-85689420D02*
X144359970Y-85193360D01*
X103589160Y-108033800D02*
X104415160Y-108859810D01*
X144359970Y-85193360D02*
X144856280Y-85193360D01*
X126460590Y-108859810D02*
X143863900Y-91456490D01*
X131457270Y-102184180D02*
X130301320Y-101028230D01*
X143249730Y-86394020D02*
X143249990Y-86394020D01*
X103244220Y-80213180D02*
X87325280Y-80213180D01*
X86203870Y-83874590D02*
X86203870Y-86813620D01*
D23*
X116047270Y-69658030D02*
X116047270Y-70458030D01*
D21*
X115804780Y-102758730D02*
X119294740Y-99268770D01*
X141491540Y-68466440D02*
X115048870Y-68466440D01*
X119064360Y-101028230D02*
X118593190Y-101499400D01*
X86203870Y-86813620D02*
X87096430Y-87706180D01*
X122715360Y-95199180D02*
X116415140Y-101499400D01*
X87096430Y-87706180D02*
X88105820Y-87706180D01*
X130301320Y-101028230D02*
X119064360Y-101028230D01*
X104057790Y-102758730D02*
X115804780Y-102758730D01*
X95663340Y-93802180D02*
X88914560Y-93802180D01*
X155270280Y-69585310D02*
X144912420Y-79943180D01*
X143863900Y-91456490D02*
X143863900Y-85689420D01*
X90296070Y-89279960D02*
X87452280Y-86436180D01*
X105657220Y-77800180D02*
X103244220Y-80213180D01*
D22*
X87548220Y-95707200D02*
X86848220Y-95707200D01*
X87548220Y-103327200D02*
X86848220Y-103327200D01*
D21*
X123932520Y-77943180D02*
X116047350Y-70058010D01*
X144602280Y-71577180D02*
X141491540Y-68466440D01*
X87198280Y-110947180D02*
X101085220Y-110947180D01*
X130766140Y-99268770D02*
X143249730Y-86785180D01*
X143249730Y-86785180D02*
X143249730Y-86394020D01*
X96798720Y-108033800D02*
X103589160Y-108033800D01*
X87198280Y-95707180D02*
X116765410Y-95707180D01*
X88105820Y-87706180D02*
X92854350Y-92454710D01*
X87325280Y-82753180D02*
X86203870Y-83874590D01*
X102467240Y-101168180D02*
X104057790Y-102758730D01*
X96085490Y-96977180D02*
X103422280Y-104313970D01*
X87198280Y-94437180D02*
X88279560Y-94437180D01*
X104415160Y-108859810D02*
X126460590Y-108859810D01*
X133215460Y-95199180D02*
X127296250Y-89279960D01*
X88914560Y-93802180D02*
X88279560Y-94437180D01*
X95917340Y-108915180D02*
X96798720Y-108033800D01*
X101515750Y-92454710D02*
X102863220Y-93802180D01*
D22*
X87548220Y-110947200D02*
X86848220Y-110947200D01*
D21*
X103422280Y-104313970D02*
X114930760Y-104313970D01*
X116765410Y-95707180D02*
X118212190Y-94260400D01*
M02*
