%TF.GenerationSoftware,KiCad,Pcbnew,(6.0.7)*%
%TF.CreationDate,2023-02-05T18:06:45+01:00*%
%TF.ProjectId,projekt_fizike_panel_diellor,70726f6a-656b-4745-9f66-697a696b655f,rev?*%
%TF.SameCoordinates,Original*%
%TF.FileFunction,Legend,Top*%
%TF.FilePolarity,Positive*%
%FSLAX46Y46*%
G04 Gerber Fmt 4.6, Leading zero omitted, Abs format (unit mm)*
G04 Created by KiCad (PCBNEW (6.0.7)) date 2023-02-05 18:06:45*
%MOMM*%
%LPD*%
G01*
G04 APERTURE LIST*
%ADD10C,0.200000*%
%ADD11C,0.300000*%
%ADD12C,0.125000*%
%ADD13C,0.152400*%
%ADD14C,0.254000*%
%ADD15C,0.000000*%
%ADD16C,0.400000*%
%ADD17C,0.228600*%
%ADD18C,0.150000*%
%ADD19C,1.001600*%
%ADD20C,1.200800*%
%ADD21C,0.812800*%
%ADD22C,0.850800*%
%ADD23C,1.901600*%
%ADD24C,0.650800*%
%ADD25C,0.900800*%
%ADD26C,1.550800*%
%ADD27C,0.700800*%
%ADD28C,0.990600*%
G04 APERTURE END LIST*
D10*
X142240000Y-98298000D02*
X155956000Y-98298000D01*
X155956000Y-98298000D02*
X155956000Y-106934000D01*
X155956000Y-106934000D02*
X142240000Y-106934000D01*
X142240000Y-106934000D02*
X142240000Y-98298000D01*
D11*
X143704857Y-99968857D02*
X143919142Y-100040285D01*
X143990571Y-100111714D01*
X144062000Y-100254571D01*
X144062000Y-100468857D01*
X143990571Y-100611714D01*
X143919142Y-100683142D01*
X143776285Y-100754571D01*
X143204857Y-100754571D01*
X143204857Y-99254571D01*
X143704857Y-99254571D01*
X143847714Y-99326000D01*
X143919142Y-99397428D01*
X143990571Y-99540285D01*
X143990571Y-99683142D01*
X143919142Y-99826000D01*
X143847714Y-99897428D01*
X143704857Y-99968857D01*
X143204857Y-99968857D01*
X145347714Y-100754571D02*
X145347714Y-99968857D01*
X145276285Y-99826000D01*
X145133428Y-99754571D01*
X144847714Y-99754571D01*
X144704857Y-99826000D01*
X145347714Y-100683142D02*
X145204857Y-100754571D01*
X144847714Y-100754571D01*
X144704857Y-100683142D01*
X144633428Y-100540285D01*
X144633428Y-100397428D01*
X144704857Y-100254571D01*
X144847714Y-100183142D01*
X145204857Y-100183142D01*
X145347714Y-100111714D01*
X145847714Y-99754571D02*
X146419142Y-99754571D01*
X146062000Y-99254571D02*
X146062000Y-100540285D01*
X146133428Y-100683142D01*
X146276285Y-100754571D01*
X146419142Y-100754571D01*
X146704857Y-99754571D02*
X147276285Y-99754571D01*
X146919142Y-99254571D02*
X146919142Y-100540285D01*
X146990571Y-100683142D01*
X147133428Y-100754571D01*
X147276285Y-100754571D01*
X148347714Y-100683142D02*
X148204857Y-100754571D01*
X147919142Y-100754571D01*
X147776285Y-100683142D01*
X147704857Y-100540285D01*
X147704857Y-99968857D01*
X147776285Y-99826000D01*
X147919142Y-99754571D01*
X148204857Y-99754571D01*
X148347714Y-99826000D01*
X148419142Y-99968857D01*
X148419142Y-100111714D01*
X147704857Y-100254571D01*
X149062000Y-100754571D02*
X149062000Y-99754571D01*
X149062000Y-100040285D02*
X149133428Y-99897428D01*
X149204857Y-99826000D01*
X149347714Y-99754571D01*
X149490571Y-99754571D01*
X149847714Y-99754571D02*
X150204857Y-100754571D01*
X150562000Y-99754571D02*
X150204857Y-100754571D01*
X150062000Y-101111714D01*
X149990571Y-101183142D01*
X149847714Y-101254571D01*
X144133428Y-102897714D02*
X144062000Y-102969142D01*
X143847714Y-103040571D01*
X143704857Y-103040571D01*
X143490571Y-102969142D01*
X143347714Y-102826285D01*
X143276285Y-102683428D01*
X143204857Y-102397714D01*
X143204857Y-102183428D01*
X143276285Y-101897714D01*
X143347714Y-101754857D01*
X143490571Y-101612000D01*
X143704857Y-101540571D01*
X143847714Y-101540571D01*
X144062000Y-101612000D01*
X144133428Y-101683428D01*
X144776285Y-103040571D02*
X144776285Y-101540571D01*
X145419142Y-103040571D02*
X145419142Y-102254857D01*
X145347714Y-102112000D01*
X145204857Y-102040571D01*
X144990571Y-102040571D01*
X144847714Y-102112000D01*
X144776285Y-102183428D01*
X146776285Y-103040571D02*
X146776285Y-102254857D01*
X146704857Y-102112000D01*
X146562000Y-102040571D01*
X146276285Y-102040571D01*
X146133428Y-102112000D01*
X146776285Y-102969142D02*
X146633428Y-103040571D01*
X146276285Y-103040571D01*
X146133428Y-102969142D01*
X146062000Y-102826285D01*
X146062000Y-102683428D01*
X146133428Y-102540571D01*
X146276285Y-102469142D01*
X146633428Y-102469142D01*
X146776285Y-102397714D01*
X147490571Y-103040571D02*
X147490571Y-102040571D01*
X147490571Y-102326285D02*
X147562000Y-102183428D01*
X147633428Y-102112000D01*
X147776285Y-102040571D01*
X147919142Y-102040571D01*
X149062000Y-102040571D02*
X149062000Y-103254857D01*
X148990571Y-103397714D01*
X148919142Y-103469142D01*
X148776285Y-103540571D01*
X148562000Y-103540571D01*
X148419142Y-103469142D01*
X149062000Y-102969142D02*
X148919142Y-103040571D01*
X148633428Y-103040571D01*
X148490571Y-102969142D01*
X148419142Y-102897714D01*
X148347714Y-102754857D01*
X148347714Y-102326285D01*
X148419142Y-102183428D01*
X148490571Y-102112000D01*
X148633428Y-102040571D01*
X148919142Y-102040571D01*
X149062000Y-102112000D01*
X150347714Y-102969142D02*
X150204857Y-103040571D01*
X149919142Y-103040571D01*
X149776285Y-102969142D01*
X149704857Y-102826285D01*
X149704857Y-102254857D01*
X149776285Y-102112000D01*
X149919142Y-102040571D01*
X150204857Y-102040571D01*
X150347714Y-102112000D01*
X150419142Y-102254857D01*
X150419142Y-102397714D01*
X149704857Y-102540571D01*
X143978857Y-105183714D02*
X143907428Y-105255142D01*
X143693142Y-105326571D01*
X143550285Y-105326571D01*
X143336000Y-105255142D01*
X143193142Y-105112285D01*
X143121714Y-104969428D01*
X143050285Y-104683714D01*
X143050285Y-104469428D01*
X143121714Y-104183714D01*
X143193142Y-104040857D01*
X143336000Y-103898000D01*
X143550285Y-103826571D01*
X143693142Y-103826571D01*
X143907428Y-103898000D01*
X143978857Y-103969428D01*
X144836000Y-105326571D02*
X144693142Y-105255142D01*
X144621714Y-105183714D01*
X144550285Y-105040857D01*
X144550285Y-104612285D01*
X144621714Y-104469428D01*
X144693142Y-104398000D01*
X144836000Y-104326571D01*
X145050285Y-104326571D01*
X145193142Y-104398000D01*
X145264571Y-104469428D01*
X145336000Y-104612285D01*
X145336000Y-105040857D01*
X145264571Y-105183714D01*
X145193142Y-105255142D01*
X145050285Y-105326571D01*
X144836000Y-105326571D01*
X145978857Y-104326571D02*
X145978857Y-105326571D01*
X145978857Y-104469428D02*
X146050285Y-104398000D01*
X146193142Y-104326571D01*
X146407428Y-104326571D01*
X146550285Y-104398000D01*
X146621714Y-104540857D01*
X146621714Y-105326571D01*
X147121714Y-104326571D02*
X147693142Y-104326571D01*
X147336000Y-103826571D02*
X147336000Y-105112285D01*
X147407428Y-105255142D01*
X147550285Y-105326571D01*
X147693142Y-105326571D01*
X148193142Y-105326571D02*
X148193142Y-104326571D01*
X148193142Y-104612285D02*
X148264571Y-104469428D01*
X148336000Y-104398000D01*
X148478857Y-104326571D01*
X148621714Y-104326571D01*
X149336000Y-105326571D02*
X149193142Y-105255142D01*
X149121714Y-105183714D01*
X149050285Y-105040857D01*
X149050285Y-104612285D01*
X149121714Y-104469428D01*
X149193142Y-104398000D01*
X149336000Y-104326571D01*
X149550285Y-104326571D01*
X149693142Y-104398000D01*
X149764571Y-104469428D01*
X149836000Y-104612285D01*
X149836000Y-105040857D01*
X149764571Y-105183714D01*
X149693142Y-105255142D01*
X149550285Y-105326571D01*
X149336000Y-105326571D01*
X150693142Y-105326571D02*
X150550285Y-105255142D01*
X150478857Y-105112285D01*
X150478857Y-103826571D01*
X151478857Y-105326571D02*
X151336000Y-105255142D01*
X151264571Y-105112285D01*
X151264571Y-103826571D01*
X152621714Y-105255142D02*
X152478857Y-105326571D01*
X152193142Y-105326571D01*
X152050285Y-105255142D01*
X151978857Y-105112285D01*
X151978857Y-104540857D01*
X152050285Y-104398000D01*
X152193142Y-104326571D01*
X152478857Y-104326571D01*
X152621714Y-104398000D01*
X152693142Y-104540857D01*
X152693142Y-104683714D01*
X151978857Y-104826571D01*
X153336000Y-105326571D02*
X153336000Y-104326571D01*
X153336000Y-104612285D02*
X153407428Y-104469428D01*
X153478857Y-104398000D01*
X153621714Y-104326571D01*
X153764571Y-104326571D01*
D10*
X154940000Y-105918000D02*
X142240000Y-105918000D01*
X142240000Y-105918000D02*
X142240000Y-98298000D01*
X142240000Y-98298000D02*
X154940000Y-98298000D01*
X154940000Y-98298000D02*
X154940000Y-105918000D01*
D12*
X163504571Y-112409809D02*
X163504571Y-112743142D01*
X164028380Y-112743142D02*
X163028380Y-112743142D01*
X163028380Y-112266952D01*
X164028380Y-111886000D02*
X163361714Y-111886000D01*
X163028380Y-111886000D02*
X163076000Y-111933619D01*
X163123619Y-111886000D01*
X163076000Y-111838380D01*
X163028380Y-111886000D01*
X163123619Y-111886000D01*
X163361714Y-111505047D02*
X163361714Y-110981238D01*
X164028380Y-111505047D01*
X164028380Y-110981238D01*
X164028380Y-110600285D02*
X163361714Y-110600285D01*
X163028380Y-110600285D02*
X163076000Y-110647904D01*
X163123619Y-110600285D01*
X163076000Y-110552666D01*
X163028380Y-110600285D01*
X163123619Y-110600285D01*
X164028380Y-110124095D02*
X163028380Y-110124095D01*
X163647428Y-110028857D02*
X164028380Y-109743142D01*
X163361714Y-109743142D02*
X163742666Y-110124095D01*
X163980761Y-108933619D02*
X164028380Y-109028857D01*
X164028380Y-109219333D01*
X163980761Y-109314571D01*
X163885523Y-109362190D01*
X163504571Y-109362190D01*
X163409333Y-109314571D01*
X163361714Y-109219333D01*
X163361714Y-109028857D01*
X163409333Y-108933619D01*
X163504571Y-108886000D01*
X163599809Y-108886000D01*
X163695047Y-109362190D01*
X163980761Y-108409809D02*
X164028380Y-108409809D01*
X164123619Y-108457428D01*
X164171238Y-108505047D01*
X163409333Y-108457428D02*
X163456952Y-108409809D01*
X163504571Y-108457428D01*
X163456952Y-108505047D01*
X163409333Y-108457428D01*
X163504571Y-108457428D01*
X164028380Y-107219333D02*
X163028380Y-107219333D01*
X164028380Y-106647904D02*
X163456952Y-107076476D01*
X163028380Y-106647904D02*
X163599809Y-107219333D01*
X164028380Y-106076476D02*
X163980761Y-106171714D01*
X163885523Y-106219333D01*
X163028380Y-106219333D01*
X164028380Y-105266952D02*
X163504571Y-105266952D01*
X163409333Y-105314571D01*
X163361714Y-105409809D01*
X163361714Y-105600285D01*
X163409333Y-105695523D01*
X163980761Y-105266952D02*
X164028380Y-105362190D01*
X164028380Y-105600285D01*
X163980761Y-105695523D01*
X163885523Y-105743142D01*
X163790285Y-105743142D01*
X163695047Y-105695523D01*
X163647428Y-105600285D01*
X163647428Y-105362190D01*
X163599809Y-105266952D01*
X163980761Y-104838380D02*
X164028380Y-104743142D01*
X164028380Y-104552666D01*
X163980761Y-104457428D01*
X163885523Y-104409809D01*
X163837904Y-104409809D01*
X163742666Y-104457428D01*
X163695047Y-104552666D01*
X163695047Y-104695523D01*
X163647428Y-104790761D01*
X163552190Y-104838380D01*
X163504571Y-104838380D01*
X163409333Y-104790761D01*
X163361714Y-104695523D01*
X163361714Y-104552666D01*
X163409333Y-104457428D01*
X164028380Y-103552666D02*
X163504571Y-103552666D01*
X163409333Y-103600285D01*
X163361714Y-103695523D01*
X163361714Y-103886000D01*
X163409333Y-103981238D01*
X163980761Y-103552666D02*
X164028380Y-103647904D01*
X164028380Y-103886000D01*
X163980761Y-103981238D01*
X163885523Y-104028857D01*
X163790285Y-104028857D01*
X163695047Y-103981238D01*
X163647428Y-103886000D01*
X163647428Y-103647904D01*
X163599809Y-103552666D01*
X163028380Y-102409809D02*
X164028380Y-101743142D01*
X163028380Y-101743142D02*
X164028380Y-102409809D01*
X164028380Y-101362190D02*
X163028380Y-101362190D01*
X164028380Y-100886000D02*
X163028380Y-100886000D01*
X164028380Y-99933619D02*
X164028380Y-100409809D01*
X163028380Y-100409809D01*
X163980761Y-99552666D02*
X164028380Y-99552666D01*
X164123619Y-99600285D01*
X164171238Y-99647904D01*
X163409333Y-99600285D02*
X163456952Y-99552666D01*
X163504571Y-99600285D01*
X163456952Y-99647904D01*
X163409333Y-99600285D01*
X163504571Y-99600285D01*
X163123619Y-98409809D02*
X163076000Y-98362190D01*
X163028380Y-98266952D01*
X163028380Y-98028857D01*
X163076000Y-97933619D01*
X163123619Y-97886000D01*
X163218857Y-97838380D01*
X163314095Y-97838380D01*
X163456952Y-97886000D01*
X164028380Y-98457428D01*
X164028380Y-97838380D01*
X163028380Y-97219333D02*
X163028380Y-97124095D01*
X163076000Y-97028857D01*
X163123619Y-96981238D01*
X163218857Y-96933619D01*
X163409333Y-96886000D01*
X163647428Y-96886000D01*
X163837904Y-96933619D01*
X163933142Y-96981238D01*
X163980761Y-97028857D01*
X164028380Y-97124095D01*
X164028380Y-97219333D01*
X163980761Y-97314571D01*
X163933142Y-97362190D01*
X163837904Y-97409809D01*
X163647428Y-97457428D01*
X163409333Y-97457428D01*
X163218857Y-97409809D01*
X163123619Y-97362190D01*
X163076000Y-97314571D01*
X163028380Y-97219333D01*
X163123619Y-96505047D02*
X163076000Y-96457428D01*
X163028380Y-96362190D01*
X163028380Y-96124095D01*
X163076000Y-96028857D01*
X163123619Y-95981238D01*
X163218857Y-95933619D01*
X163314095Y-95933619D01*
X163456952Y-95981238D01*
X164028380Y-96552666D01*
X164028380Y-95933619D01*
X163028380Y-95600285D02*
X163028380Y-94981238D01*
X163409333Y-95314571D01*
X163409333Y-95171714D01*
X163456952Y-95076476D01*
X163504571Y-95028857D01*
X163599809Y-94981238D01*
X163837904Y-94981238D01*
X163933142Y-95028857D01*
X163980761Y-95076476D01*
X164028380Y-95171714D01*
X164028380Y-95457428D01*
X163980761Y-95552666D01*
X163933142Y-95600285D01*
D13*
X83906360Y-72410330D02*
X83959710Y-72356990D01*
D14*
X109605170Y-85802420D02*
X118605150Y-85802420D01*
X100863230Y-92902230D02*
X100863230Y-94702200D01*
D13*
X90538310Y-104300020D02*
X90642440Y-104246680D01*
X90761830Y-82420950D02*
X89672160Y-82420950D01*
D14*
X93167210Y-66497080D02*
X93167210Y-67085090D01*
D13*
X115672340Y-78283820D02*
X115568200Y-78438760D01*
X141267180Y-86268570D02*
X141371320Y-86217760D01*
X116454660Y-84529680D02*
X116401320Y-84633820D01*
X141163050Y-86944200D02*
X141163050Y-86476840D01*
X90591650Y-103177340D02*
X90487500Y-103281490D01*
X128521590Y-92834470D02*
X128470790Y-92938600D01*
X91109810Y-96283780D02*
X91267280Y-96232990D01*
X114066630Y-65493980D02*
X113962490Y-65389840D01*
X90761830Y-84770450D02*
X89672160Y-84770450D01*
D14*
X118605150Y-89002420D02*
X109605170Y-89002420D01*
D13*
X90850730Y-110693200D02*
X90695780Y-110744000D01*
D14*
X158597610Y-88696810D02*
X164109410Y-88696810D01*
D13*
X91267280Y-103852990D02*
X91371420Y-103799650D01*
D15*
G36*
X129137670Y-80832960D02*
G01*
X129035050Y-80922880D01*
X128926850Y-81006700D01*
X128814070Y-81083920D01*
X128696730Y-81154020D01*
X128575310Y-81217010D01*
X128450350Y-81272380D01*
X128322330Y-81320640D01*
X128191770Y-81360780D01*
X128059190Y-81393290D01*
X127924570Y-81417670D01*
X127788930Y-81433930D01*
X127652790Y-81442060D01*
X127515630Y-81442060D01*
X127379480Y-81433930D01*
X127243850Y-81417670D01*
X127109230Y-81393290D01*
X126976640Y-81360780D01*
X126846080Y-81320640D01*
X126718070Y-81272380D01*
X126593100Y-81217010D01*
X126471690Y-81154020D01*
X126354340Y-81083920D01*
X126241560Y-81006700D01*
X126133360Y-80922880D01*
X126030740Y-80832960D01*
X125933210Y-80737460D01*
X129235210Y-80737460D01*
X129137670Y-80832960D01*
G37*
D13*
X129435990Y-92938600D02*
X129540130Y-93040200D01*
D14*
X131382270Y-71577200D02*
X132432300Y-71577200D01*
X85697070Y-97688400D02*
G75*
G03*
X85697070Y-93726000I1498400J1981200D01*
G01*
X151358610Y-89941410D02*
X151104610Y-83439000D01*
D13*
X131480570Y-87618830D02*
X131531360Y-87722970D01*
X102524570Y-75123050D02*
X102679500Y-75173840D01*
D14*
X134112280Y-76157210D02*
X134112280Y-67057150D01*
D13*
X149329140Y-83858100D02*
X149352000Y-83786990D01*
D14*
X88597080Y-89536660D02*
X88271560Y-89536660D01*
D13*
X91526360Y-111213910D02*
X91526360Y-111005630D01*
X130596640Y-87067650D02*
X130700790Y-87120990D01*
X101211390Y-98645990D02*
X101262180Y-98854260D01*
X99938840Y-83921600D02*
X99885500Y-83972410D01*
X115672340Y-77971400D02*
X115723140Y-78075540D01*
X82555080Y-74726810D02*
X82450940Y-74830940D01*
X114105160Y-84217260D02*
X114572520Y-84217260D01*
X90761830Y-83439490D02*
X90761830Y-83805250D01*
X141785340Y-85270340D02*
X142046960Y-85219550D01*
X131376430Y-78825350D02*
X131272290Y-78772010D01*
D14*
X157607000Y-84683600D02*
X158597610Y-84683600D01*
D13*
X114617810Y-65493980D02*
X114775290Y-65339040D01*
D14*
X141532360Y-76127110D02*
X132432300Y-76127110D01*
D13*
X113340190Y-66014680D02*
X113390990Y-66169620D01*
X100898960Y-98491050D02*
X100952300Y-98491050D01*
X83855570Y-69832230D02*
X83647280Y-69936360D01*
X130596640Y-78825350D02*
X130492500Y-78929490D01*
X131531360Y-80102970D02*
X130441710Y-80102970D01*
D14*
X152857210Y-89941410D02*
X152349210Y-89941410D01*
D13*
X162377120Y-76733410D02*
X162636210Y-76784200D01*
X101008180Y-91747340D02*
X101061520Y-91851490D01*
X115100840Y-78075540D02*
X115151640Y-77971400D01*
X101008180Y-83713330D02*
X101008180Y-83817470D01*
X141475460Y-86217760D02*
X141579610Y-86268570D01*
D14*
X158597610Y-86182200D02*
X158597610Y-84683600D01*
D13*
X101008180Y-83817470D02*
X100957390Y-83921600D01*
X90436710Y-104508310D02*
X90487500Y-104350830D01*
X127393710Y-98999050D02*
X128120140Y-98999050D01*
X162481270Y-72504310D02*
X162481270Y-72659250D01*
X82918310Y-76763890D02*
X82712570Y-76659750D01*
D14*
X157353000Y-86182200D02*
X158597610Y-86182200D01*
X94310210Y-70815080D02*
X95500200Y-70815080D01*
D13*
X162013910Y-69966840D02*
X162168840Y-70070990D01*
X101061520Y-92008970D02*
X101008180Y-92113100D01*
X83388210Y-76814680D02*
X83179920Y-76814680D01*
X102783640Y-75435470D02*
X102732840Y-75539600D01*
X82712570Y-76659750D02*
X82555080Y-76555600D01*
X131114800Y-78721210D02*
X130855730Y-78721210D01*
X149329140Y-84645500D02*
X149651730Y-84970630D01*
X149491710Y-83718410D02*
X149560290Y-83741260D01*
X96202500Y-71732020D02*
X96151710Y-71889500D01*
X100385890Y-91747340D02*
X100490020Y-91643200D01*
X114242450Y-99548700D02*
X115022230Y-99548700D01*
X100436680Y-92163910D02*
X100385890Y-92113100D01*
X90591650Y-96179650D02*
X90695780Y-96232990D01*
D14*
X88347253Y-88909111D02*
G75*
G03*
X88419110Y-86560250I-895053J1202911D01*
G01*
D13*
X91526360Y-103593910D02*
X91526360Y-103385630D01*
X162897820Y-72918330D02*
X163052770Y-72867520D01*
D14*
X164109410Y-87680810D02*
X164109410Y-87198200D01*
D13*
X114119970Y-66169620D02*
X114170770Y-66014680D01*
X148788120Y-71470650D02*
X148737320Y-71470650D01*
X89827100Y-84064330D02*
X89722970Y-83960190D01*
X149720300Y-83741260D02*
X149791430Y-83786990D01*
X90055710Y-88671410D02*
X90055710Y-89347050D01*
X90487500Y-103281490D02*
X90436710Y-103385630D01*
X162118050Y-74091810D02*
X163207710Y-73677780D01*
D14*
X87706210Y-67085090D02*
X87706210Y-77085070D01*
X86516148Y-86532960D02*
G75*
G03*
X86486120Y-88854840I936052J-1173240D01*
G01*
D13*
X127795150Y-92522050D02*
X127795150Y-93611700D01*
X162013910Y-68138050D02*
X162168840Y-68033910D01*
X102679500Y-75590410D02*
X102524570Y-75641200D01*
X130596640Y-79447650D02*
X130700790Y-79500990D01*
D14*
X100457180Y-76900230D02*
X103657230Y-76900210D01*
D13*
X90436710Y-104663250D02*
X90436710Y-104508310D01*
X149606000Y-83786990D02*
X149628860Y-83858100D01*
X149514570Y-85145890D02*
X149537430Y-85168750D01*
D14*
X151460210Y-73355330D02*
X150270210Y-73355330D01*
X124790080Y-96342200D02*
X124790080Y-94056200D01*
X151866610Y-89941410D02*
X151612610Y-83439000D01*
X156616410Y-89687410D02*
X157607000Y-88696810D01*
D13*
X91371420Y-103177340D02*
X91267280Y-103124000D01*
X99885500Y-83972410D02*
X99730570Y-84023200D01*
X115174500Y-84425540D02*
X115278640Y-84372200D01*
X163156910Y-72763390D02*
X163207710Y-72659250D01*
X149537430Y-85168750D02*
X149560290Y-85237330D01*
X113962490Y-65389840D02*
X113860890Y-65339040D01*
X91094570Y-90916760D02*
X91145360Y-91020910D01*
X100436680Y-91175840D02*
X100385890Y-91279990D01*
X131427230Y-88086190D02*
X131323090Y-88139530D01*
X129126110Y-92885260D02*
X129281050Y-92885260D01*
X130700790Y-78772010D02*
X130596640Y-78825350D01*
X83284070Y-75173840D02*
X83284070Y-76108570D01*
X90573860Y-91279990D02*
X90055710Y-90761830D01*
X113962490Y-66377900D02*
X114066630Y-66273760D01*
X162844480Y-70228470D02*
X163106110Y-70175130D01*
X149791430Y-83972410D02*
X149745710Y-83995260D01*
D14*
X154863800Y-83439000D02*
X154101800Y-83439000D01*
D13*
X130855730Y-78721210D02*
X130700790Y-78772010D01*
D14*
X163855410Y-83947000D02*
X159105610Y-83947000D01*
D13*
X114170770Y-66014680D02*
X114170770Y-65755600D01*
X91109810Y-111523780D02*
X91267280Y-111472990D01*
X142201910Y-84698840D02*
X142046960Y-84594700D01*
X131531360Y-79241910D02*
X131531360Y-79033630D01*
X90728810Y-90418920D02*
X90469730Y-90418920D01*
D14*
X156616410Y-83693000D02*
X157607000Y-84683600D01*
X116264030Y-93117420D02*
X116264030Y-95403420D01*
X158597610Y-88696810D02*
X158597610Y-87198200D01*
D13*
X163156910Y-71848990D02*
X163207710Y-71744840D01*
X90850730Y-104975660D02*
X90746580Y-104975660D01*
X163052770Y-72296020D02*
X162897820Y-72242680D01*
D14*
X149860000Y-81940410D02*
X147345410Y-81940410D01*
D13*
X115436120Y-84217260D02*
X115436120Y-85306920D01*
X162636210Y-70228470D02*
X162844480Y-70228470D01*
X100243640Y-106550470D02*
X100192840Y-106654600D01*
X90345260Y-84168470D02*
X90086180Y-84168470D01*
D14*
X131267080Y-94056200D02*
X131267080Y-96342200D01*
D13*
X149606000Y-83949550D02*
X149560290Y-83995260D01*
X138313160Y-65344050D02*
X138313160Y-66433700D01*
D14*
X151104610Y-83439000D02*
X150596610Y-83439000D01*
X110168030Y-102642420D02*
X110168030Y-100356420D01*
D13*
X162481270Y-70985390D02*
X162481270Y-70622160D01*
D11*
X130084330Y-86563200D02*
G75*
G03*
X130084330Y-86563200I-2500120J0D01*
G01*
D13*
X83906360Y-71132700D02*
X82816710Y-71546730D01*
X83489810Y-73271390D02*
X83334860Y-73324730D01*
X90487500Y-96075500D02*
X90591650Y-96179650D01*
X112919110Y-105045260D02*
X113386470Y-105045260D01*
X90850730Y-96283780D02*
X91109810Y-96283780D01*
X162118050Y-73261230D02*
X163207710Y-73677780D01*
D14*
X163855410Y-89433410D02*
X164109410Y-89179410D01*
D13*
X114341380Y-78956920D02*
X113978160Y-78956920D01*
X102420430Y-75641200D02*
X102783640Y-76212700D01*
D14*
X93989480Y-67085090D02*
X93989480Y-66497080D01*
D13*
X114227210Y-92672920D02*
X114382150Y-92622120D01*
X100639890Y-98645990D02*
X100744020Y-98541840D01*
D14*
X150368000Y-89941410D02*
X149860000Y-89941410D01*
D13*
X99626430Y-84023200D02*
X99989640Y-84594700D01*
X91475570Y-95661490D02*
X91371420Y-95557340D01*
D14*
X129084070Y-77427080D02*
X129084070Y-78443080D01*
D13*
X99263210Y-91125050D02*
X99730570Y-91125050D01*
X128521590Y-92730330D02*
X128521590Y-92834470D01*
X149537430Y-84853780D02*
X149814290Y-84645500D01*
X100594160Y-83505050D02*
X100799910Y-83505050D01*
X131272290Y-78772010D02*
X131114800Y-78721210D01*
X129192020Y-99415600D02*
X129192020Y-99674680D01*
D14*
X112032170Y-79444420D02*
X116432160Y-79444420D01*
X116645110Y-101499420D02*
X117407110Y-101499420D01*
D13*
X148633180Y-71419850D02*
X148579840Y-71366510D01*
X83751420Y-68813680D02*
X82816710Y-68813680D01*
X91371420Y-95557340D02*
X91267280Y-95504000D01*
X82555080Y-67899280D02*
X82450940Y-68003420D01*
X114486290Y-92154760D02*
X114382150Y-92050620D01*
X91094570Y-91333330D02*
X91041230Y-91384130D01*
D14*
X109914030Y-108865420D02*
X109914030Y-106579420D01*
D13*
X90553550Y-84511370D02*
X90606890Y-84615510D01*
D14*
X152095210Y-83439000D02*
X151612610Y-83439000D01*
D13*
X162636210Y-67878970D02*
X162844480Y-67878970D01*
D14*
X101217200Y-100218190D02*
X101217200Y-102118220D01*
D13*
X115278640Y-84372200D02*
X115436120Y-84217260D01*
X149329140Y-83880970D02*
X149329140Y-83858100D01*
X91422230Y-97251520D02*
X91318080Y-97302330D01*
X100799910Y-83505050D02*
X100904050Y-83555840D01*
X163001960Y-71899780D02*
X163156910Y-71848990D01*
X115723140Y-78179680D02*
X115672340Y-78283820D01*
X131114800Y-88086190D02*
X130959860Y-87982050D01*
X162844480Y-67878970D02*
X163106110Y-67932310D01*
X114173870Y-91583260D02*
X114018930Y-91634060D01*
D14*
X86448570Y-67085090D02*
X86448570Y-77085070D01*
D13*
X127393710Y-100088700D02*
X128120140Y-100088700D01*
X99880430Y-99009200D02*
X100243640Y-99580700D01*
X128968630Y-92522050D02*
X128917830Y-92989410D01*
D14*
X129584200Y-77943210D02*
X128568200Y-77943210D01*
D13*
X130492500Y-86549490D02*
X130441710Y-86653630D01*
D14*
X85300190Y-67085090D02*
X85300190Y-77085070D01*
X149606000Y-90449410D02*
X149860000Y-90449410D01*
D13*
X116401320Y-84321400D02*
X116454660Y-84425540D01*
X114763150Y-98822260D02*
X114763150Y-99911920D01*
X99984570Y-106238050D02*
X100139500Y-106288840D01*
X114105160Y-84217260D02*
X114105160Y-85306920D01*
X113645550Y-105253540D02*
X113645550Y-105357680D01*
D14*
X87445960Y-66497080D02*
X86623680Y-66497080D01*
D13*
X90761830Y-83439490D02*
X89672160Y-83439490D01*
X114227210Y-91999820D02*
X114173870Y-91999820D01*
X129087890Y-99933760D02*
X128983750Y-100037910D01*
X91371420Y-110797340D02*
X91267280Y-110744000D01*
X91267280Y-95504000D02*
X91109810Y-95453200D01*
X149628860Y-83880970D02*
X149606000Y-83949550D01*
X90761830Y-82420950D02*
X90761830Y-83096590D01*
X141579610Y-86268570D02*
X141630410Y-86321910D01*
X90746580Y-104975660D02*
X90591650Y-104922330D01*
X90487500Y-104818180D02*
X90436710Y-104663250D01*
D14*
X88471200Y-80529210D02*
X88471200Y-81037210D01*
D13*
X162636210Y-72867520D02*
X162793680Y-72918330D01*
D14*
X154355800Y-89941410D02*
X154101800Y-83439000D01*
D13*
X100744020Y-98541840D02*
X100898960Y-98491050D01*
X90487500Y-95661490D02*
X90436710Y-95765630D01*
X163106110Y-76733410D02*
X163311840Y-76629260D01*
D15*
G36*
X129137670Y-88452960D02*
G01*
X129035050Y-88542880D01*
X128926850Y-88626700D01*
X128814070Y-88703920D01*
X128696730Y-88774020D01*
X128575310Y-88837010D01*
X128450350Y-88892380D01*
X128322330Y-88940640D01*
X128191770Y-88980780D01*
X128059190Y-89013290D01*
X127924570Y-89037670D01*
X127788930Y-89053930D01*
X127652790Y-89062060D01*
X127515630Y-89062060D01*
X127379480Y-89053930D01*
X127243850Y-89037670D01*
X127109230Y-89013290D01*
X126976640Y-88980780D01*
X126846080Y-88940640D01*
X126718070Y-88892380D01*
X126593100Y-88837010D01*
X126471690Y-88774020D01*
X126354340Y-88703920D01*
X126241560Y-88626700D01*
X126133360Y-88542880D01*
X126030740Y-88452960D01*
X125933210Y-88357460D01*
X129235210Y-88357460D01*
X129137670Y-88452960D01*
G37*
D13*
X101262180Y-98854260D02*
X101211390Y-99009200D01*
X96461590Y-72303520D02*
X97241360Y-72303520D01*
X131376430Y-86445350D02*
X131272290Y-86392010D01*
D14*
X158851610Y-89179410D02*
X164109410Y-89179410D01*
D13*
X128463050Y-98999050D02*
X128463050Y-100088700D01*
X83855570Y-76659750D02*
X83647280Y-76763890D01*
D14*
X157607000Y-88696810D02*
X158597610Y-88696810D01*
D13*
X102057210Y-75123050D02*
X102057210Y-76212700D01*
D14*
X142849610Y-81940410D02*
X142849610Y-89179410D01*
D13*
X101008180Y-91279990D02*
X100957390Y-91175840D01*
X91109810Y-103073200D02*
X90850730Y-103073200D01*
X91145360Y-90055700D02*
X91094570Y-90210650D01*
X90086180Y-84168470D02*
X89931250Y-84115130D01*
D14*
X129557020Y-100784160D02*
X129557020Y-103584250D01*
X164109410Y-88696810D02*
X164109410Y-88188810D01*
D13*
X149352000Y-84239100D02*
X149329140Y-84310230D01*
D14*
X151780930Y-77673330D02*
X152603210Y-77673330D01*
X150992440Y-70686550D02*
X150992440Y-68376930D01*
X156616410Y-89687410D02*
X156616410Y-83693000D01*
D13*
X91526360Y-104350830D02*
X91526360Y-104922330D01*
X142046960Y-85219550D02*
X142201910Y-85115410D01*
X114468380Y-84735420D02*
X114831600Y-85306920D01*
X99517210Y-106238050D02*
X99984570Y-106238050D01*
X82918310Y-69936360D02*
X82712570Y-69832230D01*
X149491710Y-84018130D02*
X149466300Y-84018130D01*
X141371320Y-85219550D02*
X141630410Y-85270340D01*
D14*
X141532110Y-76127360D02*
X141532110Y-67027300D01*
D13*
X149791430Y-84424520D02*
X149814290Y-84355940D01*
X91318080Y-97302330D02*
X91213940Y-97302330D01*
X149618710Y-72280910D02*
X149618710Y-72176770D01*
D14*
X124663150Y-95199200D02*
X123901150Y-95199200D01*
D13*
X90606890Y-84064330D02*
X90502750Y-84115130D01*
X149567910Y-72438390D02*
X149618710Y-72280910D01*
X149308820Y-72593330D02*
X149463770Y-72542530D01*
X149329140Y-84310230D02*
X149329140Y-84355940D01*
D14*
X154863800Y-83693000D02*
X154863800Y-83439000D01*
D13*
X162844480Y-76784200D02*
X163106110Y-76733410D01*
X114727460Y-84268060D02*
X114780800Y-84321400D01*
X90055710Y-90055700D02*
X90055710Y-89689940D01*
D14*
X164109410Y-87198200D02*
X158597610Y-87198200D01*
D13*
X101211390Y-99009200D02*
X101107250Y-99113340D01*
D14*
X141562080Y-71577200D02*
X142582140Y-71577200D01*
D13*
X114600460Y-78022200D02*
X114653800Y-78126340D01*
X101061520Y-91851490D02*
X101061520Y-92008970D01*
X91422230Y-96730830D02*
X91475570Y-96784160D01*
D14*
X94310210Y-68505480D02*
X94310210Y-70815080D01*
D13*
X83388210Y-74467730D02*
X83179920Y-74467730D01*
D14*
X86525207Y-79753203D02*
G75*
G03*
X86372610Y-83072630I799993J-1699997D01*
G01*
D13*
X100139500Y-106288840D02*
X100192840Y-106342180D01*
X129138680Y-99829630D02*
X129087890Y-99933760D01*
X101262180Y-99113340D02*
X101211390Y-99374970D01*
D14*
X158851610Y-89179410D02*
X159105610Y-89433410D01*
D13*
X129126110Y-93611700D02*
X128968630Y-93560910D01*
D14*
X164109410Y-84429600D02*
X164109410Y-84201000D01*
D13*
X101008180Y-92113100D02*
X100957390Y-92163910D01*
X113914790Y-92154760D02*
X113861450Y-92309700D01*
X129281050Y-92885260D02*
X129435990Y-92938600D01*
D14*
X150850610Y-89941410D02*
X150596610Y-83439000D01*
D13*
X113444330Y-66273760D02*
X113548470Y-66377900D01*
X90642440Y-103540570D02*
X90332570Y-103852990D01*
X163156910Y-71485760D02*
X163001960Y-71328280D01*
X116454660Y-84425540D02*
X116454660Y-84529680D01*
D14*
X116391030Y-108865420D02*
X109914030Y-108865420D01*
D13*
X161909770Y-76420990D02*
X162013910Y-76525130D01*
D14*
X118767150Y-67748230D02*
X108167230Y-67748230D01*
X143103610Y-91440000D02*
X143103610Y-89179410D01*
D13*
X149791430Y-84239100D02*
X149720300Y-84193390D01*
D14*
X93989480Y-66497080D02*
X93167210Y-66497080D01*
X152603210Y-83439000D02*
X152095210Y-83439000D01*
X164109410Y-89179410D02*
X164109410Y-88696810D01*
D13*
X131480570Y-86549490D02*
X131376430Y-86445350D01*
X130441710Y-86653630D02*
X130441710Y-86861910D01*
X114018930Y-92050620D02*
X113914790Y-92154760D01*
X114173870Y-92672920D02*
X114227210Y-92672920D01*
X128463050Y-98999050D02*
X128828800Y-98999050D01*
X162481270Y-71899780D02*
X163001960Y-71899780D01*
D14*
X100863230Y-94702180D02*
X97663180Y-94702200D01*
X164109410Y-85445600D02*
X164109410Y-84937600D01*
D13*
X91475570Y-96075500D02*
X91526360Y-95973910D01*
D14*
X86817209Y-85674197D02*
G75*
G03*
X86324040Y-89511610I634991J-2032003D01*
G01*
D13*
X100957390Y-83921600D02*
X100853250Y-84076550D01*
X99885500Y-83555840D02*
X99938840Y-83609180D01*
X99263210Y-91125050D02*
X99263210Y-92214700D01*
X137657840Y-66174630D02*
X137604500Y-66278760D01*
X137657840Y-65603130D02*
X137708640Y-65760600D01*
D14*
X97917180Y-109815180D02*
X97917180Y-108015210D01*
X100863230Y-85282230D02*
X100863230Y-87082200D01*
D13*
X100586550Y-98854260D02*
X100586550Y-98803470D01*
X113340190Y-65755600D02*
X113340190Y-66014680D01*
X91526360Y-95973910D02*
X91526360Y-95765630D01*
X99730570Y-91125050D02*
X99885500Y-91175840D01*
X113978160Y-77867260D02*
X114341380Y-77867260D01*
X149537430Y-84170520D02*
X149420590Y-84193390D01*
X141630410Y-86321910D02*
X141681210Y-86476840D01*
X148529050Y-71262370D02*
X148529050Y-71056630D01*
X91041230Y-91384130D02*
X90937080Y-91437470D01*
D14*
X143103610Y-89179410D02*
X142849610Y-89179410D01*
D13*
X114382150Y-92050620D02*
X114227210Y-91999820D01*
X90695780Y-103852990D02*
X90850730Y-103903780D01*
X84114650Y-68003420D02*
X84010500Y-67899280D01*
X114278010Y-91583260D02*
X114173870Y-91583260D01*
X161909770Y-74800470D02*
X162013910Y-74696330D01*
X100957390Y-83609180D02*
X101008180Y-83713330D01*
X113861450Y-92050620D02*
X113861450Y-92309700D01*
X137604500Y-65498990D02*
X137657840Y-65603130D01*
X82555080Y-76555600D02*
X82450940Y-76451470D01*
X82712570Y-74622660D02*
X82555080Y-74726810D01*
X83179920Y-67640200D02*
X82918310Y-67691000D01*
D14*
X97917180Y-108015230D02*
X101117230Y-108015210D01*
D13*
X141630410Y-85270340D02*
X141785340Y-85270340D01*
D14*
X158597610Y-86182200D02*
X164109410Y-86182200D01*
D13*
X90591650Y-95557340D02*
X90487500Y-95661490D01*
X163469320Y-76525130D02*
X163573460Y-76420990D01*
X163052770Y-72867520D02*
X163156910Y-72763390D01*
X91145360Y-89689940D02*
X90055710Y-89689940D01*
X90761830Y-81455750D02*
X89672160Y-81455750D01*
X141213840Y-85115410D02*
X141371320Y-85219550D01*
D14*
X100863230Y-87082180D02*
X97663180Y-87082200D01*
X151780930Y-77085320D02*
X151780930Y-77673330D01*
D13*
X113414410Y-91634060D02*
X113467750Y-91687400D01*
X114704600Y-78283820D02*
X114704600Y-78542900D01*
X115829820Y-84476340D02*
X115829820Y-84425540D01*
X90469730Y-90418920D02*
X90314780Y-90365580D01*
X131272290Y-87514690D02*
X131323090Y-87514690D01*
X83543150Y-72356990D02*
X82816710Y-72356990D01*
X115883160Y-84321400D02*
X115933960Y-84268060D01*
X115151640Y-77971400D02*
X115204980Y-77918060D01*
D14*
X142849610Y-89179410D02*
X142849610Y-91440000D01*
D13*
X163469320Y-74696330D02*
X163573460Y-74800470D01*
X113390990Y-65598120D02*
X113340190Y-65755600D01*
D14*
X94777970Y-73483860D02*
X94777970Y-75793480D01*
X108166210Y-67149120D02*
X118768170Y-67149120D01*
X157353000Y-87198200D02*
X157353000Y-86182200D01*
X109914030Y-106579420D02*
X116391030Y-106579420D01*
D13*
X113988450Y-105045260D02*
X114717430Y-105045260D01*
X162168840Y-76629260D02*
X162377120Y-76733410D01*
X131323090Y-87514690D02*
X131427230Y-87568030D01*
X90591650Y-110797340D02*
X90487500Y-110901490D01*
X101008180Y-91384130D02*
X101008180Y-91279990D01*
X91475570Y-96784160D02*
X91526360Y-96888310D01*
X100690680Y-106392990D02*
X100848160Y-106238050D01*
X116297180Y-84788760D02*
X115779020Y-85306920D01*
D14*
X87445960Y-67085090D02*
X87445960Y-66497080D01*
D13*
X100332550Y-92008970D02*
X100332550Y-91851490D01*
X99517210Y-98491050D02*
X99984570Y-98491050D01*
D14*
X95500200Y-68505480D02*
X94310210Y-68505480D01*
D13*
X114775290Y-65339040D02*
X114775290Y-66428700D01*
X90210650Y-90314780D02*
X90106500Y-90210650D01*
D14*
X159105610Y-83947000D02*
X158597610Y-84429600D01*
D13*
X114382150Y-92622120D02*
X114486290Y-92517980D01*
X100436680Y-83609180D02*
X100490020Y-83555840D01*
X114018930Y-91634060D02*
X113914790Y-91791540D01*
X162844480Y-74434700D02*
X163106110Y-74488050D01*
X100436680Y-91488260D02*
X100540820Y-91541600D01*
X163156910Y-72400160D02*
X163052770Y-72296020D01*
X83647280Y-76763890D02*
X83388210Y-76814680D01*
X141317980Y-85770730D02*
X141163050Y-85613250D01*
X83543150Y-73012310D02*
X83543150Y-73167250D01*
X99989640Y-83713330D02*
X99989640Y-83817470D01*
X131218950Y-88139530D02*
X131114800Y-88086190D01*
X115100840Y-78126340D02*
X115100840Y-78075540D01*
X163311840Y-74592180D02*
X163469320Y-74696330D01*
X91526360Y-112387390D02*
X90799920Y-111866680D01*
X142252710Y-84856330D02*
X142201910Y-84698840D01*
X149791430Y-83786990D02*
X149814290Y-83858100D01*
X100594160Y-91125050D02*
X100436680Y-91175840D01*
D14*
X164109410Y-86182200D02*
X164109410Y-85928200D01*
D13*
X162118050Y-70830440D02*
X163001960Y-70830440D01*
X90502750Y-84115130D02*
X90345260Y-84168470D01*
X149352000Y-84424520D02*
X149420590Y-84470250D01*
D14*
X94777950Y-68505480D02*
X94777950Y-70815080D01*
D13*
X89672160Y-82420950D02*
X89672160Y-83096590D01*
X113467750Y-91999820D02*
X113414410Y-92050620D01*
X91109810Y-103903780D02*
X91267280Y-103852990D01*
D14*
X150114000Y-83439000D02*
X149860000Y-83439000D01*
D13*
X149329140Y-83243420D02*
X149814290Y-83474570D01*
X83388210Y-69989700D02*
X83179920Y-69989700D01*
X100749110Y-91592410D02*
X100904050Y-91643200D01*
D14*
X149860000Y-90449410D02*
X149860000Y-89941410D01*
D13*
X102057210Y-75123050D02*
X102524570Y-75123050D01*
D14*
X101117230Y-109815180D02*
X97917180Y-109815200D01*
X152603210Y-77673330D02*
X152603210Y-77085320D01*
D13*
X101211390Y-99374970D02*
X101107250Y-99529910D01*
X84010500Y-69728080D02*
X83855570Y-69832230D01*
D14*
X88325200Y-83053200D02*
X88271840Y-83053200D01*
D13*
X162793680Y-72918330D02*
X162897820Y-72918330D01*
X149606000Y-83718410D02*
X149720300Y-83741260D01*
D16*
X110697220Y-72473190D02*
G75*
G03*
X110699760Y-72473190I1270J-199990D01*
G01*
D13*
X90436710Y-95973910D02*
X90487500Y-96075500D01*
X162168840Y-70070990D02*
X162377120Y-70175130D01*
X129435990Y-93560910D02*
X129281050Y-93611700D01*
X99984570Y-98491050D02*
X100139500Y-98541840D01*
X90436710Y-103385630D02*
X90436710Y-103593910D01*
X131480570Y-88035390D02*
X131427230Y-88086190D01*
X115514860Y-77867260D02*
X115619000Y-77918060D01*
X128262510Y-92522050D02*
X128417450Y-92572840D01*
X102783640Y-75331330D02*
X102783640Y-75435470D01*
X103126550Y-75331330D02*
X103230680Y-75277990D01*
X114486290Y-92517980D02*
X114537090Y-92363040D01*
X83906360Y-71963280D02*
X82816710Y-71546730D01*
X100490020Y-91643200D02*
X100644960Y-91592410D01*
X161909770Y-68242180D02*
X162013910Y-68138050D01*
X100952300Y-99166680D02*
X100898960Y-99166680D01*
D14*
X149860000Y-83439000D02*
X149860000Y-81940410D01*
D13*
X100385890Y-83713330D02*
X100436680Y-83609180D01*
D14*
X150596610Y-83439000D02*
X150114000Y-83439000D01*
D13*
X83647280Y-67691000D02*
X83388210Y-67640200D01*
X82712570Y-67795150D02*
X82555080Y-67899280D01*
X100639890Y-99009200D02*
X100586550Y-98854260D01*
D14*
X160470220Y-77085320D02*
X160470220Y-67085340D01*
D13*
X99938840Y-91541600D02*
X99885500Y-91592410D01*
X131272290Y-86392010D02*
X131114800Y-86341210D01*
X113807550Y-66222960D02*
X114119970Y-66532840D01*
D14*
X149860000Y-91440000D02*
X149860000Y-90449410D01*
D13*
X116350520Y-84268060D02*
X116401320Y-84321400D01*
X141681210Y-86580990D02*
X142252710Y-86217760D01*
X91526360Y-112387390D02*
X90436710Y-112387390D01*
X114498860Y-77918060D02*
X114600460Y-78022200D01*
X91008210Y-104922330D02*
X90850730Y-104975660D01*
X149606000Y-84493100D02*
X149720300Y-84470250D01*
X113594750Y-105149400D02*
X113645550Y-105253540D01*
X96306640Y-71627880D02*
X96202500Y-71732020D01*
X84114650Y-74830940D02*
X84010500Y-74726810D01*
X89672160Y-81455750D02*
X89672160Y-82078050D01*
X113386470Y-105045260D02*
X113541410Y-105096060D01*
X114780800Y-84633820D02*
X114727460Y-84684620D01*
X100586550Y-98803470D02*
X100639890Y-98645990D01*
X131531360Y-87722970D02*
X131531360Y-87931250D01*
X149463770Y-72542530D02*
X149567910Y-72438390D01*
X100848160Y-106238050D02*
X100848160Y-107327700D01*
X128828800Y-98999050D02*
X128983750Y-99049840D01*
X90627210Y-88671410D02*
X90627210Y-89087970D01*
D14*
X153365210Y-89941410D02*
X153111210Y-83439000D01*
D13*
X131376430Y-79948030D02*
X131531360Y-80102970D01*
X99885500Y-91175840D02*
X99938840Y-91229180D01*
X149374860Y-85145890D02*
X149420590Y-85123020D01*
X162897820Y-72242680D02*
X162793680Y-72242680D01*
X101107250Y-99529910D02*
X100952300Y-99580700D01*
D14*
X85697070Y-105308400D02*
G75*
G03*
X85697070Y-101346000I1498400J1981200D01*
G01*
D13*
X149720300Y-84193390D02*
X149606000Y-84170520D01*
X130855730Y-86341210D02*
X130700790Y-86392010D01*
X114780800Y-84321400D02*
X114831600Y-84425540D01*
X162013910Y-74696330D02*
X162168840Y-74592180D01*
D14*
X151866610Y-89941410D02*
X151358610Y-89941410D01*
X95500200Y-77085070D02*
X85300190Y-77085070D01*
X150992460Y-75664930D02*
X150992460Y-73355330D01*
D13*
X83179920Y-69989700D02*
X82918310Y-69936360D01*
X149397730Y-83995260D02*
X149352000Y-83949550D01*
D14*
X158597610Y-85445600D02*
X164109410Y-85445600D01*
D13*
X90850730Y-103903780D02*
X91109810Y-103903780D01*
X100586550Y-106446330D02*
X100690680Y-106392990D01*
X130492500Y-79343510D02*
X130596640Y-79447650D01*
X83489810Y-72908160D02*
X83543150Y-73012310D01*
X148529050Y-72593330D02*
X149308820Y-72593330D01*
D14*
X154863800Y-89941410D02*
X154863800Y-89687410D01*
D13*
X101450140Y-106238050D02*
X101450140Y-107327700D01*
X91371420Y-96179650D02*
X91475570Y-96075500D01*
X148737320Y-70848350D02*
X148841460Y-70848350D01*
D14*
X116645030Y-102642420D02*
X110168030Y-102642420D01*
X109787030Y-93117420D02*
X116264030Y-93117420D01*
X124790080Y-94056200D02*
X131267080Y-94056200D01*
X112032170Y-79444420D02*
X112032170Y-81644420D01*
X152349210Y-89941410D02*
X151866610Y-89941410D01*
X129084070Y-85047080D02*
X129084070Y-86063080D01*
D13*
X83855570Y-72356990D02*
X83906360Y-72410330D01*
D14*
X92713890Y-67085090D02*
X92713890Y-77085070D01*
X101117230Y-108015230D02*
X101117230Y-109815200D01*
D13*
X130959860Y-87982050D02*
X130441710Y-87463890D01*
X90591650Y-103799650D02*
X90695780Y-103852990D01*
X99730570Y-83505050D02*
X99885500Y-83555840D01*
X113645550Y-105357680D02*
X113594750Y-105461820D01*
X100799910Y-91125050D02*
X100594160Y-91125050D01*
X113518550Y-91895680D02*
X113467750Y-91999820D01*
X100332550Y-84594700D02*
X101061520Y-84594700D01*
X149329140Y-85237330D02*
X149352000Y-85168750D01*
X91526360Y-96888310D02*
X91526360Y-97094050D01*
X163207710Y-70675500D02*
X163207710Y-70571360D01*
X113467750Y-91687400D02*
X113518550Y-91791540D01*
X148529050Y-71056630D02*
X148579840Y-70952490D01*
X100898960Y-99166680D02*
X100744020Y-99113340D01*
D14*
X147345410Y-91440000D02*
X147345410Y-81940410D01*
D13*
X100385890Y-91384130D02*
X100436680Y-91488260D01*
X131272290Y-87120990D02*
X131376430Y-87067650D01*
D14*
X151460210Y-75664930D02*
X151460210Y-73355330D01*
D13*
X113861450Y-92309700D02*
X113914790Y-92517980D01*
X91267280Y-111472990D02*
X91371420Y-111419650D01*
X90055710Y-90761830D02*
X90055710Y-91488260D01*
X91475570Y-103695500D02*
X91526360Y-103593910D01*
X91526360Y-95765630D02*
X91475570Y-95661490D01*
D14*
X158064210Y-77085320D02*
X158064210Y-67085340D01*
D13*
X138155680Y-65498990D02*
X138313160Y-65344050D01*
X149329140Y-83566000D02*
X149329140Y-83243420D01*
X163207710Y-72504310D02*
X163156910Y-72400160D01*
D14*
X103657230Y-78700180D02*
X100457180Y-78700200D01*
D13*
X149618710Y-72176770D02*
X149567910Y-72021830D01*
X99885500Y-91592410D02*
X99730570Y-91643200D01*
X84114650Y-69623940D02*
X84010500Y-69728080D01*
X83543150Y-73167250D02*
X83489810Y-73271390D01*
X114717430Y-105045260D02*
X114196730Y-106134920D01*
X141213840Y-86321910D02*
X141267180Y-86268570D01*
X128983750Y-99049840D02*
X129087890Y-99153990D01*
X100139500Y-98958410D02*
X99984570Y-99009200D01*
D14*
X129557020Y-103584250D02*
X125357130Y-103584250D01*
D13*
X163106110Y-67932310D02*
X163311840Y-68033910D01*
X91267280Y-110744000D02*
X91109810Y-110693200D01*
X129540130Y-93456760D02*
X129435990Y-93560910D01*
D14*
X154355800Y-89941410D02*
X153847800Y-89941410D01*
D13*
X90606890Y-84615510D02*
X90761830Y-84770450D01*
X91094570Y-90210650D02*
X90990420Y-90314780D01*
X149329140Y-84970630D02*
X149814290Y-84970630D01*
D14*
X153056520Y-77085320D02*
X153056520Y-67085340D01*
D13*
X90990420Y-90314780D02*
X90886280Y-90365580D01*
X97241360Y-71577080D02*
X96461590Y-71577080D01*
X90886280Y-90812630D02*
X90937080Y-90812630D01*
D14*
X150850610Y-89941410D02*
X150368000Y-89941410D01*
D13*
X163311840Y-76629260D02*
X163469320Y-76525130D01*
X97033090Y-72646420D02*
X97086430Y-72750560D01*
X99938840Y-83609180D02*
X99989640Y-83713330D01*
X83647280Y-74518520D02*
X83388210Y-74467730D01*
X90243660Y-82420950D02*
X90243660Y-82837510D01*
X90436710Y-111005630D02*
X90436710Y-111213910D01*
X114432950Y-91634060D02*
X114278010Y-91583260D01*
X142201910Y-85115410D02*
X142252710Y-84960470D01*
D14*
X159105610Y-89433410D02*
X163855410Y-89433410D01*
D13*
X113652610Y-66428700D02*
X113860890Y-66428700D01*
X149560290Y-83995260D02*
X149491710Y-84018130D01*
X163156910Y-70777100D02*
X163207710Y-70675500D01*
X128968630Y-93560910D02*
X128917830Y-93510100D01*
X115723140Y-78075540D02*
X115723140Y-78179680D01*
X114831600Y-84425540D02*
X114831600Y-84529680D01*
X83179920Y-76814680D02*
X82918310Y-76763890D01*
X130700790Y-86392010D02*
X130596640Y-86445350D01*
D14*
X132432300Y-67027300D02*
X132432300Y-76127360D01*
X112032170Y-81644420D02*
X116432160Y-81644420D01*
X164109410Y-84201000D02*
X163855410Y-83947000D01*
D13*
X90695780Y-95504000D02*
X90591650Y-95557340D01*
X162481270Y-71328280D02*
X163207710Y-71328280D01*
X163311840Y-70070990D02*
X163469320Y-69966840D01*
X149352000Y-85168750D02*
X149374860Y-85145890D01*
X90055710Y-87706200D02*
X90055710Y-88328500D01*
D14*
X154863800Y-83693000D02*
X156616410Y-83693000D01*
D13*
X91145360Y-91229180D02*
X91094570Y-91333330D01*
D14*
X147345410Y-81940410D02*
X143103610Y-81940410D01*
D13*
X113860890Y-65339040D02*
X113652610Y-65339040D01*
X128120140Y-98999050D02*
X127393710Y-100088700D01*
X90436710Y-103593910D02*
X90487500Y-103695500D01*
X149420590Y-85123020D02*
X149466300Y-85123020D01*
D14*
X118605150Y-85802420D02*
X118605150Y-89002420D01*
D13*
X90591650Y-111419650D02*
X90695780Y-111472990D01*
D14*
X150270190Y-70686550D02*
X151460210Y-70686550D01*
D13*
X148633180Y-70899150D02*
X148737320Y-70848350D01*
X82712570Y-69832230D02*
X82555080Y-69728080D01*
X149628860Y-83858100D02*
X149628860Y-83880970D01*
D14*
X158324450Y-77673330D02*
X159146730Y-77673330D01*
D13*
X100192840Y-98907600D02*
X100139500Y-98958410D01*
X113536330Y-99340420D02*
X113899550Y-99911920D01*
D14*
X153111210Y-83439000D02*
X152603210Y-83439000D01*
D13*
X141371320Y-84594700D02*
X141213840Y-84698840D01*
X91526360Y-111005630D02*
X91475570Y-110901490D01*
X149491710Y-83718410D02*
X149606000Y-83718410D01*
D14*
X153365210Y-89941410D02*
X152857210Y-89941410D01*
X116391110Y-107722420D02*
X117153110Y-107722420D01*
X94310210Y-73483860D02*
X94310210Y-75793480D01*
D13*
X82918310Y-74518520D02*
X82712570Y-74622660D01*
D14*
X151358610Y-89941410D02*
X150850610Y-89941410D01*
D13*
X130492500Y-78929490D02*
X130441710Y-79033630D01*
X113652610Y-65339040D02*
X113548470Y-65389840D01*
X142252710Y-84960470D02*
X142252710Y-84856330D01*
X103230680Y-75277990D02*
X103388160Y-75123050D01*
X113795410Y-99289620D02*
X113640470Y-99340420D01*
D14*
X116264110Y-94260420D02*
X117026110Y-94260420D01*
D13*
X141213840Y-84698840D02*
X141163050Y-84856330D01*
X90436710Y-96626680D02*
X90436710Y-97355660D01*
X100799910Y-92214700D02*
X100594160Y-92214700D01*
X96306640Y-72252720D02*
X96461590Y-72303520D01*
X114486290Y-91738200D02*
X114432950Y-91634060D01*
D14*
X116645030Y-100356420D02*
X116645030Y-102642420D01*
D13*
X91109810Y-97251520D02*
X90954860Y-97147390D01*
X128158370Y-93040200D02*
X128521590Y-93611700D01*
X100744020Y-99113340D02*
X100639890Y-99009200D01*
X113541410Y-105512620D02*
X113386470Y-105563420D01*
X115568200Y-78438760D02*
X115047500Y-78956920D01*
X137708640Y-66019680D02*
X137657840Y-66174630D01*
D14*
X108166210Y-71947180D02*
X108166210Y-67154200D01*
X154863800Y-89941410D02*
X154355800Y-89941410D01*
D13*
X114513670Y-65547320D02*
X114617810Y-65493980D01*
X83334860Y-72753230D02*
X83489810Y-72908160D01*
D14*
X164109410Y-85928200D02*
X164109410Y-85445600D01*
X158597610Y-85928200D02*
X164109410Y-85928200D01*
X85698330Y-112927110D02*
X85698330Y-108967300D01*
D13*
X115829820Y-84425540D02*
X115883160Y-84321400D01*
X91145360Y-89689940D02*
X91145360Y-90055700D01*
X131376430Y-79447650D02*
X131480570Y-79343510D01*
D14*
X158597610Y-84937600D02*
X164109410Y-84937600D01*
D13*
X162013910Y-76525130D02*
X162168840Y-76629260D01*
X90711020Y-83960190D02*
X90606890Y-84064330D01*
D14*
X97663180Y-87082180D02*
X97663180Y-85282210D01*
X116391030Y-106579420D02*
X116391030Y-108865420D01*
D13*
X113899550Y-99134680D02*
X113848750Y-99238820D01*
X90695780Y-103124000D02*
X90591650Y-103177340D01*
X141163050Y-86476840D02*
X141213840Y-86321910D01*
X91267280Y-96680020D02*
X91318080Y-96680020D01*
D14*
X103657230Y-76900230D02*
X103657230Y-78700200D01*
D13*
X100952300Y-98491050D02*
X101107250Y-98541840D01*
X141163050Y-84960470D02*
X141213840Y-85115410D01*
D14*
X133933210Y-76158220D02*
X133933210Y-67058160D01*
D13*
X91371420Y-103799650D02*
X91475570Y-103695500D01*
X113795410Y-98873060D02*
X113848750Y-98926400D01*
X163311840Y-68033910D02*
X163469320Y-68138050D01*
X162636210Y-76784200D02*
X162844480Y-76784200D01*
X149308820Y-71866890D02*
X148529050Y-71866890D01*
X99517210Y-98491050D02*
X99517210Y-99580700D01*
D14*
X110041110Y-101499420D02*
X109279110Y-101499420D01*
X158324450Y-77085320D02*
X158324450Y-77673330D01*
D13*
X100192840Y-98595180D02*
X100243640Y-98699330D01*
D14*
X147345410Y-91440000D02*
X149606000Y-91440000D01*
D13*
X130441710Y-87463890D02*
X130441710Y-88190330D01*
X91475570Y-110901490D02*
X91371420Y-110797340D01*
X113518550Y-91791540D02*
X113518550Y-91895680D01*
X100192840Y-106654600D02*
X100139500Y-106705410D01*
X100385890Y-91279990D02*
X100385890Y-91384130D01*
X91318080Y-96680020D02*
X91422230Y-96730830D01*
X91475570Y-97198180D02*
X91422230Y-97251520D01*
X149567910Y-72021830D02*
X149463770Y-71917690D01*
X137502910Y-66382910D02*
X137345430Y-66433700D01*
X90487500Y-104350830D02*
X90538310Y-104300020D01*
X131114800Y-86341210D02*
X130855730Y-86341210D01*
X136982210Y-65344050D02*
X137345430Y-65344050D01*
X113899550Y-99030540D02*
X113899550Y-99134680D01*
X90937080Y-90812630D02*
X91041230Y-90865970D01*
X141785340Y-84543910D02*
X141630410Y-84543910D01*
D14*
X88325212Y-83053203D02*
G75*
G03*
X88128610Y-79745990I-1000012J1600003D01*
G01*
X158597610Y-84429600D02*
X164109410Y-84429600D01*
D13*
X131531360Y-79033630D02*
X131480570Y-78929490D01*
D14*
X149860000Y-89941410D02*
X149860000Y-83439000D01*
D13*
X91526360Y-104922330D02*
X91109810Y-104609910D01*
X129794000Y-98999050D02*
X129794000Y-100088700D01*
D14*
X149606000Y-91440000D02*
X149606000Y-90449410D01*
D13*
X129593470Y-93301830D02*
X129540130Y-93456760D01*
D14*
X151460210Y-68376930D02*
X150270190Y-68376930D01*
D13*
X131480570Y-79343510D02*
X131531360Y-79241910D01*
X91145360Y-88671410D02*
X90055710Y-88671410D01*
X148841460Y-70848350D02*
X148945610Y-70899150D01*
X100192840Y-106342180D02*
X100243640Y-106446330D01*
X163469320Y-68138050D02*
X163573460Y-68242180D01*
X83855570Y-74622660D02*
X83647280Y-74518520D01*
X97241360Y-72908040D02*
X96151710Y-72908040D01*
X149560290Y-83741260D02*
X149606000Y-83786990D01*
X114498860Y-78906120D02*
X114341380Y-78956920D01*
X84010500Y-74726810D02*
X83855570Y-74622660D01*
X148579840Y-70952490D02*
X148633180Y-70899150D01*
X100957390Y-92163910D02*
X100799910Y-92214700D01*
X113640470Y-99340420D02*
X113173110Y-99340420D01*
X90436710Y-95765630D02*
X90436710Y-95973910D01*
D14*
X97663180Y-92902230D02*
X100863230Y-92902210D01*
D13*
X83906360Y-72306180D02*
X83855570Y-72356990D01*
X90850730Y-95453200D02*
X90695780Y-95504000D01*
X90799920Y-111866680D02*
X90799920Y-112646470D01*
X100385890Y-83764130D02*
X100385890Y-83713330D01*
X84010500Y-67899280D02*
X83855570Y-67795150D01*
X113640470Y-98822260D02*
X113795410Y-98873060D01*
X100904050Y-91643200D02*
X101008180Y-91747340D01*
X130441710Y-79241910D02*
X130492500Y-79343510D01*
X149814290Y-84310230D02*
X149791430Y-84239100D01*
X138051550Y-65552330D02*
X138155680Y-65498990D01*
X100243640Y-98699330D02*
X100243640Y-98803470D01*
X114653800Y-78126340D02*
X114704600Y-78283820D01*
X100853250Y-84076550D02*
X100332550Y-84594700D01*
X162272980Y-75610730D02*
X163207710Y-75610730D01*
D14*
X149606000Y-91440000D02*
X149860000Y-91440000D01*
D13*
X96151710Y-71889500D02*
X96151710Y-71993640D01*
X99263210Y-83505050D02*
X99263210Y-84594700D01*
X149466300Y-84018130D02*
X149397730Y-83995260D01*
X127795150Y-92522050D02*
X128262510Y-92522050D01*
X113848750Y-98926400D02*
X113899550Y-99030540D01*
X101295210Y-106392990D02*
X101450140Y-106238050D01*
X99989640Y-83817470D02*
X99938840Y-83921600D01*
X91526360Y-97094050D02*
X91475570Y-97198180D01*
X90695780Y-110744000D02*
X90591650Y-110797340D01*
X89931250Y-84115130D02*
X89827100Y-84064330D01*
X96461590Y-71577080D02*
X96306640Y-71627880D01*
X141681210Y-86476840D02*
X141681210Y-86944200D01*
X149463770Y-71917690D02*
X149308820Y-71866890D01*
X116038100Y-84217260D02*
X116246380Y-84217260D01*
X90728810Y-91384130D02*
X90573860Y-91279990D01*
X96202500Y-72148580D02*
X96306640Y-72252720D01*
X91145360Y-88671410D02*
X91145360Y-89347050D01*
X130596640Y-86445350D02*
X130492500Y-86549490D01*
X128262510Y-93040200D02*
X127795150Y-93040200D01*
X83334860Y-73324730D02*
X82816710Y-73324730D01*
D14*
X97817210Y-102118220D02*
X97817210Y-100218190D01*
D13*
X83284070Y-68346330D02*
X83284070Y-69281050D01*
X137345430Y-66433700D02*
X136982210Y-66433700D01*
X112792110Y-91583260D02*
X112792110Y-92672920D01*
X114572520Y-84217260D02*
X114727460Y-84268060D01*
X100139500Y-106705410D02*
X99984570Y-106756200D01*
D14*
X110168030Y-100356420D02*
X116645030Y-100356420D01*
D13*
X162636210Y-74434700D02*
X162844480Y-74434700D01*
X149606000Y-84170520D02*
X149537430Y-84170520D01*
X114727460Y-84684620D02*
X114572520Y-84735420D01*
X129138680Y-99258130D02*
X129192020Y-99415600D01*
X90487500Y-110901490D02*
X90436710Y-111005630D01*
X115204980Y-77918060D02*
X115309120Y-77867260D01*
X114763150Y-98822260D02*
X114242450Y-99548700D01*
D14*
X164109410Y-84937600D02*
X164109410Y-84429600D01*
X158597610Y-87680810D02*
X164109410Y-87680810D01*
D13*
X91109810Y-104609910D02*
X91109810Y-104767390D01*
X163207710Y-71744840D02*
X163207710Y-71589910D01*
X128917830Y-92989410D02*
X128968630Y-92938600D01*
X131531360Y-86653630D02*
X131480570Y-86549490D01*
X116401320Y-84633820D02*
X116297180Y-84788760D01*
X99984570Y-106756200D02*
X99517210Y-106756200D01*
X131323090Y-88139530D02*
X131218950Y-88139530D01*
X113414410Y-92050620D02*
X113259470Y-92101420D01*
D14*
X150270210Y-77085320D02*
X150270210Y-67085340D01*
D13*
X91267280Y-103124000D02*
X91109810Y-103073200D01*
D14*
X150270210Y-67085340D02*
X160470220Y-67085340D01*
D13*
X163469320Y-69966840D02*
X163573460Y-69862700D01*
D14*
X86372600Y-83072640D02*
X86384970Y-83072640D01*
D13*
X99938840Y-91229180D02*
X99989640Y-91333330D01*
X113386470Y-105563420D02*
X112919110Y-105563420D01*
X113594750Y-105461820D02*
X113541410Y-105512620D01*
X90487500Y-111315500D02*
X90591650Y-111419650D01*
X83647280Y-69936360D02*
X83388210Y-69989700D01*
D14*
X154863800Y-89687410D02*
X154863800Y-83693000D01*
D13*
X137345430Y-65344050D02*
X137502910Y-65394840D01*
X91526360Y-103385630D02*
X91475570Y-103281490D01*
X91109810Y-104767390D02*
X91059000Y-104871520D01*
X100853250Y-91541600D02*
X100957390Y-91488260D01*
D14*
X158597610Y-88696810D02*
X158597610Y-88950810D01*
D13*
X149814290Y-84355940D02*
X149814290Y-84310230D01*
X128417450Y-92572840D02*
X128470790Y-92626180D01*
D14*
X97663180Y-85282230D02*
X100863230Y-85282210D01*
D13*
X113548470Y-66377900D02*
X113652610Y-66428700D01*
D14*
X164109410Y-88188810D02*
X164109410Y-87680810D01*
D13*
X90886280Y-90365580D02*
X90728810Y-90418920D01*
X100952300Y-99580700D02*
X100848160Y-99580700D01*
D14*
X159321840Y-77085320D02*
X159321840Y-67085340D01*
D13*
X129489330Y-92522050D02*
X128968630Y-92522050D01*
X100957390Y-91175840D02*
X100799910Y-91125050D01*
X162168840Y-68033910D02*
X162377120Y-67932310D01*
X114653800Y-78697840D02*
X114600460Y-78801980D01*
X99880430Y-106756200D02*
X100243640Y-107327700D01*
X99989640Y-91333330D02*
X99989640Y-91437470D01*
D14*
X142849610Y-91440000D02*
X143103610Y-91440000D01*
D13*
X113548470Y-65389840D02*
X113444330Y-65493980D01*
X149329140Y-84355940D02*
X149352000Y-84424520D01*
X90106500Y-90210650D02*
X90055710Y-90055700D01*
X129534930Y-99207330D02*
X129639070Y-99153990D01*
D14*
X100457180Y-78700180D02*
X100457180Y-76900210D01*
D13*
X128968630Y-92938600D02*
X129126110Y-92885260D01*
X149814290Y-83858100D02*
X149814290Y-83903830D01*
X100540820Y-91541600D02*
X100749110Y-91592410D01*
X83959710Y-72356990D02*
X83906360Y-72306180D01*
D14*
X85698330Y-105307110D02*
X85698330Y-101347300D01*
D13*
X101107250Y-99113340D02*
X100952300Y-99166680D01*
X149397730Y-83741260D02*
X149491710Y-83718410D01*
X137502910Y-65394840D02*
X137604500Y-65498990D01*
X101191070Y-106446330D02*
X101295210Y-106392990D01*
D14*
X118768170Y-71947180D02*
X108166210Y-71947180D01*
D13*
X113914790Y-92517980D02*
X114018930Y-92622120D01*
D14*
X108166210Y-67154200D02*
X108166210Y-67149120D01*
D13*
X112792110Y-91583260D02*
X113259470Y-91583260D01*
D14*
X109787030Y-95403420D02*
X109787030Y-93117420D01*
D13*
X131323090Y-79843890D02*
X131376430Y-79948030D01*
D14*
X95500220Y-73483860D02*
X94310210Y-73483860D01*
X154863800Y-89687410D02*
X156616410Y-89687410D01*
D13*
X100957390Y-91488260D02*
X101008180Y-91384130D01*
X114537090Y-92363040D02*
X114537090Y-92309700D01*
X131376430Y-87067650D02*
X131480570Y-86963510D01*
X162481270Y-72659250D02*
X162534610Y-72763390D01*
X113259470Y-91583260D02*
X113414410Y-91634060D01*
X136982210Y-65344050D02*
X136982210Y-66433700D01*
X91145360Y-87706200D02*
X90055710Y-87706200D01*
X91475570Y-111315500D02*
X91526360Y-111213910D01*
X102679500Y-75173840D02*
X102732840Y-75227180D01*
D14*
X151460210Y-70686550D02*
X151460210Y-68376930D01*
D13*
X100490020Y-83555840D02*
X100594160Y-83505050D01*
X83543150Y-72753230D02*
X82816710Y-72753230D01*
X90832940Y-91437470D02*
X90728810Y-91384130D01*
X90954860Y-97147390D02*
X90436710Y-96626680D01*
X114537090Y-92309700D02*
X114486290Y-92154760D01*
D14*
X152857210Y-89941410D02*
X152603210Y-83439000D01*
D13*
X162740340Y-76078080D02*
X162740340Y-75143360D01*
X130441710Y-86861910D02*
X130492500Y-86963510D01*
X149352000Y-83949550D02*
X149329140Y-83880970D01*
X103388160Y-75123050D02*
X103388160Y-76212700D01*
X149814290Y-83903830D02*
X149791430Y-83972410D01*
X90850730Y-111523780D02*
X91109810Y-111523780D01*
X162793680Y-72242680D02*
X162636210Y-72296020D01*
X114831600Y-84529680D02*
X114780800Y-84633820D01*
X90695780Y-96232990D02*
X90850730Y-96283780D01*
D14*
X85698330Y-97687110D02*
X85698330Y-93727300D01*
D13*
X99263210Y-83505050D02*
X99730570Y-83505050D01*
X91475570Y-103281490D02*
X91371420Y-103177340D01*
X90591650Y-104922330D02*
X90487500Y-104818180D01*
D14*
X150368000Y-89941410D02*
X150114000Y-83439000D01*
D13*
X149420590Y-84470250D02*
X149537430Y-84493100D01*
X113978160Y-77867260D02*
X113978160Y-78956920D01*
X90761830Y-83805250D02*
X90711020Y-83960190D01*
D14*
X133762270Y-76157210D02*
X133762270Y-67057150D01*
D13*
X113259470Y-92101420D02*
X112792110Y-92101420D01*
X101107250Y-98541840D02*
X101211390Y-98645990D01*
X131480570Y-78929490D02*
X131376430Y-78825350D01*
X161909770Y-69862700D02*
X162013910Y-69966840D01*
D14*
X158597610Y-87198200D02*
X157353000Y-87198200D01*
D13*
X129281050Y-93611700D02*
X129126110Y-93611700D01*
X90937080Y-91437470D02*
X90832940Y-91437470D01*
D14*
X150270210Y-77085320D02*
X160470220Y-77085320D01*
X133552210Y-76157210D02*
X133552210Y-67057150D01*
D13*
X90695780Y-111472990D02*
X90850730Y-111523780D01*
D14*
X158597610Y-88950810D02*
X158851610Y-89179410D01*
D13*
X83388210Y-67640200D02*
X83179920Y-67640200D01*
X101262180Y-98854260D02*
X101262180Y-99113340D01*
X113541410Y-105096060D02*
X113594750Y-105149400D01*
D14*
X112971560Y-79444420D02*
X112971560Y-81644420D01*
D13*
X100904050Y-83555840D02*
X100957390Y-83609180D01*
X82918310Y-67691000D02*
X82712570Y-67795150D01*
X129540130Y-93040200D02*
X129593470Y-93197680D01*
D14*
X85697070Y-112928400D02*
G75*
G03*
X85697070Y-108966000I1498400J1981200D01*
G01*
D13*
X100594160Y-92214700D02*
X100436680Y-92163910D01*
D14*
X132432300Y-67027300D02*
X141532360Y-67027300D01*
D17*
X128727210Y-100914200D02*
X128727210Y-103454200D01*
D14*
X95500200Y-67085090D02*
X95500200Y-77085070D01*
X153847800Y-89941410D02*
X153593800Y-83439000D01*
D13*
X91041230Y-90865970D02*
X91094570Y-90916760D01*
X163001960Y-70830440D02*
X163156910Y-70777100D01*
X113173110Y-98822260D02*
X113640470Y-98822260D01*
X148945610Y-70899150D02*
X149100550Y-71003290D01*
X90436710Y-111213910D02*
X90487500Y-111315500D01*
X114341380Y-77867260D02*
X114498860Y-77918060D01*
X149618710Y-71523990D02*
X149618710Y-70795010D01*
X128417450Y-92989410D02*
X128262510Y-93040200D01*
X128828800Y-100088700D02*
X128463050Y-100088700D01*
X163207710Y-72659250D02*
X163207710Y-72504310D01*
X149420590Y-84193390D02*
X149352000Y-84239100D01*
X113848750Y-99238820D02*
X113795410Y-99289620D01*
X91059000Y-104871520D02*
X91008210Y-104922330D01*
X131272290Y-79500990D02*
X131376430Y-79447650D01*
X99984570Y-99009200D02*
X99517210Y-99009200D01*
X149560290Y-85283050D02*
X149814290Y-85123020D01*
D14*
X152349210Y-89941410D02*
X152095210Y-83439000D01*
D13*
X163106110Y-70175130D02*
X163311840Y-70070990D01*
D14*
X143103610Y-81940410D02*
X142849610Y-81940410D01*
D13*
X141630410Y-84543910D02*
X141371320Y-84594700D01*
D14*
X153847800Y-89941410D02*
X153365210Y-89941410D01*
D13*
X137708640Y-65760600D02*
X137708640Y-66019680D01*
X162534610Y-72763390D02*
X162636210Y-72867520D01*
X149720300Y-84470250D02*
X149791430Y-84424520D01*
X83179920Y-74467730D02*
X82918310Y-74518520D01*
D14*
X97817210Y-100218190D02*
X101217200Y-100218190D01*
D13*
X91109810Y-110693200D02*
X90850730Y-110693200D01*
X114170770Y-65755600D02*
X114119970Y-65598120D01*
X128470790Y-92938600D02*
X128417450Y-92989410D01*
X90487500Y-103695500D02*
X90591650Y-103799650D01*
X131531360Y-87931250D02*
X131480570Y-88035390D01*
D14*
X118768170Y-67149120D02*
X118768170Y-71947180D01*
D13*
X115779020Y-85306920D02*
X116505460Y-85306920D01*
X149466300Y-85123020D02*
X149514570Y-85145890D01*
D14*
X88725200Y-80783210D02*
X88217200Y-80783210D01*
D13*
X114066630Y-66273760D02*
X114119970Y-66169620D01*
X149329140Y-85445600D02*
X149814290Y-85445600D01*
D14*
X153593800Y-83439000D02*
X153111210Y-83439000D01*
D13*
X149537430Y-84493100D02*
X149606000Y-84493100D01*
X114704600Y-78542900D02*
X114653800Y-78697840D01*
D14*
X151612610Y-83439000D02*
X151104610Y-83439000D01*
X154101800Y-83439000D02*
X153593800Y-83439000D01*
D13*
X115619000Y-77918060D02*
X115672340Y-77971400D01*
X141163050Y-86944200D02*
X142252710Y-86944200D01*
X137604500Y-66278760D02*
X137502910Y-66382910D01*
X162377120Y-74488050D02*
X162636210Y-74434700D01*
X113444330Y-65493980D02*
X113390990Y-65598120D01*
D14*
X143103610Y-89179410D02*
X143103610Y-81940410D01*
D13*
X141371320Y-86217760D02*
X141475460Y-86217760D01*
X91145360Y-91020910D02*
X91145360Y-91229180D01*
X100139500Y-98541840D02*
X100192840Y-98595180D01*
X114018930Y-92622120D02*
X114173870Y-92672920D01*
X115933960Y-84268060D02*
X116038100Y-84217260D01*
D14*
X158597610Y-84429600D02*
X158597610Y-84683600D01*
D13*
X96151710Y-71993640D02*
X96202500Y-72148580D01*
X89722970Y-83960190D02*
X89672160Y-83805250D01*
D14*
X116264030Y-95403420D02*
X109787030Y-95403420D01*
D13*
X90642440Y-95920570D02*
X90332570Y-96232990D01*
X100690680Y-99529910D02*
X100639890Y-99425760D01*
D14*
X95500200Y-67085090D02*
X85300190Y-67085090D01*
X143103610Y-91440000D02*
X147345410Y-91440000D01*
D13*
X114600460Y-78801980D02*
X114498860Y-78906120D01*
X99730570Y-91643200D02*
X99263210Y-91643200D01*
X129593470Y-93197680D02*
X129593470Y-93301830D01*
D14*
X109605170Y-89002420D02*
X109605170Y-85802420D01*
X129584200Y-85563210D02*
X128568200Y-85563210D01*
D13*
X162377120Y-70175130D02*
X162636210Y-70228470D01*
X90642440Y-111160570D02*
X90332570Y-111472990D01*
X141371320Y-85874860D02*
X141317980Y-85770730D01*
X100332550Y-91851490D02*
X100385890Y-91747340D01*
D14*
X125357130Y-100784160D02*
X129557020Y-100784160D01*
D13*
X83855570Y-67795150D02*
X83647280Y-67691000D01*
D14*
X150270210Y-75664930D02*
X151460210Y-75664930D01*
D13*
X97086430Y-72750560D02*
X97241360Y-72908040D01*
X115047500Y-78956920D02*
X115776480Y-78956920D01*
X130441710Y-79033630D02*
X130441710Y-79241910D01*
X91213940Y-97302330D02*
X91109810Y-97251520D01*
X113155330Y-92101420D02*
X113518550Y-92672920D01*
D14*
X86623680Y-66497080D02*
X86623680Y-67085090D01*
D13*
X91109810Y-95453200D02*
X90850730Y-95453200D01*
X99730570Y-84023200D02*
X99263210Y-84023200D01*
X90314780Y-90365580D02*
X90210650Y-90314780D01*
X82555080Y-69728080D02*
X82450940Y-69623940D01*
X162636210Y-72296020D02*
X162534610Y-72400160D01*
X162377120Y-67932310D02*
X162636210Y-67878970D01*
X128917830Y-93510100D02*
X128864490Y-93405970D01*
X114572520Y-84735420D02*
X114105160Y-84735420D01*
X100385890Y-92113100D02*
X100332550Y-92008970D01*
D14*
X97663180Y-94702180D02*
X97663180Y-92902210D01*
D13*
X131531360Y-86861910D02*
X131531360Y-86653630D01*
X149560290Y-85237330D02*
X149560290Y-85445600D01*
X114119970Y-65598120D02*
X114066630Y-65493980D01*
X128983750Y-100037910D02*
X128828800Y-100088700D01*
X91371420Y-111419650D02*
X91475570Y-111315500D01*
D14*
X131267080Y-96342200D02*
X124790080Y-96342200D01*
X88597085Y-89536641D02*
G75*
G03*
X88085230Y-85642090I-1144885J1830441D01*
G01*
D13*
X141163050Y-84856330D02*
X141163050Y-84960470D01*
X142046960Y-84594700D02*
X141785340Y-84543910D01*
X148579840Y-71366510D02*
X148529050Y-71262370D01*
X102524570Y-75641200D02*
X102057210Y-75641200D01*
D14*
X86618680Y-89515400D02*
X86324040Y-89511610D01*
D13*
X149352000Y-83786990D02*
X149397730Y-83741260D01*
X113390990Y-66169620D02*
X113444330Y-66273760D01*
X91267280Y-96232990D02*
X91371420Y-96179650D01*
X113282330Y-105563420D02*
X113645550Y-106134920D01*
X114173870Y-91999820D02*
X114018930Y-92050620D01*
X129192020Y-99674680D02*
X129138680Y-99829630D01*
X141163050Y-85613250D02*
X142252710Y-85613250D01*
D11*
X130084330Y-78943200D02*
G75*
G03*
X130084330Y-78943200I-2500120J0D01*
G01*
D13*
X113860890Y-66428700D02*
X113962490Y-66377900D01*
X131480570Y-86963510D02*
X131531360Y-86861910D01*
X89672160Y-83805250D02*
X89672160Y-83439490D01*
D14*
X131267150Y-95199200D02*
X132029150Y-95199200D01*
X158597610Y-88188810D02*
X164109410Y-88188810D01*
D13*
X102732840Y-75227180D02*
X102783640Y-75331330D01*
X102732840Y-75539600D02*
X102679500Y-75590410D01*
X112919110Y-105045260D02*
X112919110Y-106134920D01*
X99989640Y-91437470D02*
X99938840Y-91541600D01*
D14*
X125357130Y-103584250D02*
X125357130Y-100784160D01*
D13*
X163106110Y-74488050D02*
X163311840Y-74592180D01*
D14*
X109660110Y-94260420D02*
X108898110Y-94260420D01*
D13*
X116246380Y-84217260D02*
X116350520Y-84268060D01*
X162534610Y-72400160D02*
X162481270Y-72504310D01*
D14*
X101217200Y-102118220D02*
X97817210Y-102118220D01*
D13*
X99626430Y-91643200D02*
X99989640Y-92214700D01*
X113914790Y-91791540D02*
X113861450Y-92050620D01*
X162168840Y-74592180D02*
X162377120Y-74488050D01*
X129639070Y-99153990D02*
X129794000Y-98999050D01*
D14*
X116432160Y-79444420D02*
X116432160Y-81644420D01*
D13*
X113173110Y-98822260D02*
X113173110Y-99911920D01*
X128470790Y-92626180D02*
X128521590Y-92730330D01*
X148737320Y-71470650D02*
X148633180Y-71419850D01*
X149100550Y-71003290D02*
X149618710Y-71523990D01*
X100848160Y-99580700D02*
X100690680Y-99529910D01*
X100644960Y-91592410D02*
X100853250Y-91541600D01*
X130492500Y-86963510D02*
X130596640Y-87067650D01*
X163207710Y-71589910D02*
X163156910Y-71485760D01*
X131427230Y-87568030D02*
X131480570Y-87618830D01*
D14*
X109787110Y-107722420D02*
X109025110Y-107722420D01*
X94310210Y-75793480D02*
X95500220Y-75793480D01*
D13*
X115309120Y-77867260D02*
X115514860Y-77867260D01*
X100243640Y-106446330D02*
X100243640Y-106550470D01*
X162740340Y-69519810D02*
X162740340Y-68585080D01*
X129087890Y-99153990D02*
X129138680Y-99258130D01*
X100243640Y-98803470D02*
X100192840Y-98907600D01*
X99517210Y-106238050D02*
X99517210Y-107327700D01*
X90850730Y-103073200D02*
X90695780Y-103124000D01*
X84114650Y-76451470D02*
X84010500Y-76555600D01*
X149329140Y-85445600D02*
X149329140Y-85237330D01*
D14*
X159146730Y-77673330D02*
X159146730Y-77085320D01*
D13*
X84010500Y-76555600D02*
X83855570Y-76659750D01*
D18*
X107350095Y-115768380D02*
X107350095Y-114768380D01*
X107683428Y-115482666D01*
X108016761Y-114768380D01*
X108016761Y-115768380D01*
X108921523Y-115768380D02*
X108921523Y-115244571D01*
X108873904Y-115149333D01*
X108778666Y-115101714D01*
X108588190Y-115101714D01*
X108492952Y-115149333D01*
X108921523Y-115720761D02*
X108826285Y-115768380D01*
X108588190Y-115768380D01*
X108492952Y-115720761D01*
X108445333Y-115625523D01*
X108445333Y-115530285D01*
X108492952Y-115435047D01*
X108588190Y-115387428D01*
X108826285Y-115387428D01*
X108921523Y-115339809D01*
X109397714Y-115768380D02*
X109397714Y-115101714D01*
X109397714Y-115292190D02*
X109445333Y-115196952D01*
X109492952Y-115149333D01*
X109588190Y-115101714D01*
X109683428Y-115101714D01*
X109873904Y-115101714D02*
X110254857Y-115101714D01*
X110016761Y-114768380D02*
X110016761Y-115625523D01*
X110064380Y-115720761D01*
X110159619Y-115768380D01*
X110254857Y-115768380D01*
X110588190Y-115768380D02*
X110588190Y-115101714D01*
X110588190Y-114768380D02*
X110540571Y-114816000D01*
X110588190Y-114863619D01*
X110635809Y-114816000D01*
X110588190Y-114768380D01*
X110588190Y-114863619D01*
X111064380Y-115101714D02*
X111064380Y-115768380D01*
X111064380Y-115196952D02*
X111112000Y-115149333D01*
X111207238Y-115101714D01*
X111350095Y-115101714D01*
X111445333Y-115149333D01*
X111492952Y-115244571D01*
X111492952Y-115768380D01*
X112635809Y-114768380D02*
X113302476Y-114768380D01*
X112635809Y-115768380D01*
X113302476Y-115768380D01*
X114112000Y-115101714D02*
X114112000Y-115911238D01*
X114064380Y-116006476D01*
X114016761Y-116054095D01*
X113921523Y-116101714D01*
X113778666Y-116101714D01*
X113683428Y-116054095D01*
X114112000Y-115720761D02*
X114016761Y-115768380D01*
X113826285Y-115768380D01*
X113731047Y-115720761D01*
X113683428Y-115673142D01*
X113635809Y-115577904D01*
X113635809Y-115292190D01*
X113683428Y-115196952D01*
X113731047Y-115149333D01*
X113826285Y-115101714D01*
X114016761Y-115101714D01*
X114112000Y-115149333D01*
X115016761Y-115101714D02*
X115016761Y-115768380D01*
X114588190Y-115101714D02*
X114588190Y-115625523D01*
X114635809Y-115720761D01*
X114731047Y-115768380D01*
X114873904Y-115768380D01*
X114969142Y-115720761D01*
X115016761Y-115673142D01*
X115492952Y-115768380D02*
X115492952Y-115101714D01*
X115492952Y-115292190D02*
X115540571Y-115196952D01*
X115588190Y-115149333D01*
X115683428Y-115101714D01*
X115778666Y-115101714D01*
X116112000Y-115768380D02*
X116112000Y-115101714D01*
X116112000Y-114768380D02*
X116064380Y-114816000D01*
X116112000Y-114863619D01*
X116159619Y-114816000D01*
X116112000Y-114768380D01*
X116112000Y-114863619D01*
X116635809Y-115720761D02*
X116635809Y-115768380D01*
X116588190Y-115863619D01*
X116540571Y-115911238D01*
X117826285Y-115768380D02*
X117826285Y-114768380D01*
X118397714Y-115768380D02*
X117969142Y-115196952D01*
X118397714Y-114768380D02*
X117826285Y-115339809D01*
X118826285Y-115768380D02*
X118826285Y-115101714D01*
X118826285Y-115292190D02*
X118873904Y-115196952D01*
X118921523Y-115149333D01*
X119016761Y-115101714D01*
X119112000Y-115101714D01*
X119445333Y-115768380D02*
X119445333Y-115101714D01*
X119445333Y-114768380D02*
X119397714Y-114816000D01*
X119445333Y-114863619D01*
X119492952Y-114816000D01*
X119445333Y-114768380D01*
X119445333Y-114863619D01*
X119873904Y-115720761D02*
X119969142Y-115768380D01*
X120159619Y-115768380D01*
X120254857Y-115720761D01*
X120302476Y-115625523D01*
X120302476Y-115577904D01*
X120254857Y-115482666D01*
X120159619Y-115435047D01*
X120016761Y-115435047D01*
X119921523Y-115387428D01*
X119873904Y-115292190D01*
X119873904Y-115244571D01*
X119921523Y-115149333D01*
X120016761Y-115101714D01*
X120159619Y-115101714D01*
X120254857Y-115149333D01*
X120588190Y-115101714D02*
X120969142Y-115101714D01*
X120731047Y-114768380D02*
X120731047Y-115625523D01*
X120778666Y-115720761D01*
X120873904Y-115768380D01*
X120969142Y-115768380D01*
X121683428Y-115720761D02*
X121588190Y-115768380D01*
X121397714Y-115768380D01*
X121302476Y-115720761D01*
X121254857Y-115625523D01*
X121254857Y-115244571D01*
X121302476Y-115149333D01*
X121397714Y-115101714D01*
X121588190Y-115101714D01*
X121683428Y-115149333D01*
X121731047Y-115244571D01*
X121731047Y-115339809D01*
X121254857Y-115435047D01*
X122302476Y-115768380D02*
X122207238Y-115720761D01*
X122159619Y-115625523D01*
X122159619Y-114768380D01*
X123397714Y-115720761D02*
X123540571Y-115768380D01*
X123778666Y-115768380D01*
X123873904Y-115720761D01*
X123921523Y-115673142D01*
X123969142Y-115577904D01*
X123969142Y-115482666D01*
X123921523Y-115387428D01*
X123873904Y-115339809D01*
X123778666Y-115292190D01*
X123588190Y-115244571D01*
X123492952Y-115196952D01*
X123445333Y-115149333D01*
X123397714Y-115054095D01*
X123397714Y-114958857D01*
X123445333Y-114863619D01*
X123492952Y-114816000D01*
X123588190Y-114768380D01*
X123826285Y-114768380D01*
X123969142Y-114816000D01*
X124397714Y-115768380D02*
X124397714Y-114768380D01*
X124826285Y-115768380D02*
X124826285Y-115244571D01*
X124778666Y-115149333D01*
X124683428Y-115101714D01*
X124540571Y-115101714D01*
X124445333Y-115149333D01*
X124397714Y-115196952D01*
X125731047Y-115768380D02*
X125731047Y-115244571D01*
X125683428Y-115149333D01*
X125588190Y-115101714D01*
X125397714Y-115101714D01*
X125302476Y-115149333D01*
X125731047Y-115720761D02*
X125635809Y-115768380D01*
X125397714Y-115768380D01*
X125302476Y-115720761D01*
X125254857Y-115625523D01*
X125254857Y-115530285D01*
X125302476Y-115435047D01*
X125397714Y-115387428D01*
X125635809Y-115387428D01*
X125731047Y-115339809D01*
X126207238Y-115768380D02*
X126207238Y-114768380D01*
X126635809Y-115768380D02*
X126635809Y-115244571D01*
X126588190Y-115149333D01*
X126492952Y-115101714D01*
X126350095Y-115101714D01*
X126254857Y-115149333D01*
X126207238Y-115196952D01*
X127254857Y-115768380D02*
X127159619Y-115720761D01*
X127112000Y-115673142D01*
X127064380Y-115577904D01*
X127064380Y-115292190D01*
X127112000Y-115196952D01*
X127159619Y-115149333D01*
X127254857Y-115101714D01*
X127397714Y-115101714D01*
X127492952Y-115149333D01*
X127540571Y-115196952D01*
X127588190Y-115292190D01*
X127588190Y-115577904D01*
X127540571Y-115673142D01*
X127492952Y-115720761D01*
X127397714Y-115768380D01*
X127254857Y-115768380D01*
X128159619Y-115768380D02*
X128064380Y-115720761D01*
X128016761Y-115625523D01*
X128016761Y-114768380D01*
X128683428Y-115768380D02*
X128588190Y-115720761D01*
X128540571Y-115625523D01*
X128540571Y-114768380D01*
X129064380Y-115768380D02*
X129064380Y-115101714D01*
X129064380Y-114768380D02*
X129016761Y-114816000D01*
X129064380Y-114863619D01*
X129111999Y-114816000D01*
X129064380Y-114768380D01*
X129064380Y-114863619D01*
X129588190Y-115720761D02*
X129588190Y-115768380D01*
X129540571Y-115863619D01*
X129492952Y-115911238D01*
X130731047Y-115482666D02*
X131207238Y-115482666D01*
X130635809Y-115768380D02*
X130969142Y-114768380D01*
X131302476Y-115768380D01*
X131778666Y-115768380D02*
X131683428Y-115720761D01*
X131635809Y-115625523D01*
X131635809Y-114768380D01*
X132159619Y-115768380D02*
X132159619Y-114768380D01*
X132254857Y-115387428D02*
X132540571Y-115768380D01*
X132540571Y-115101714D02*
X132159619Y-115482666D01*
X133397714Y-115101714D02*
X133397714Y-115768380D01*
X132969142Y-115101714D02*
X132969142Y-115625523D01*
X133016761Y-115720761D01*
X133111999Y-115768380D01*
X133254857Y-115768380D01*
X133350095Y-115720761D01*
X133397714Y-115673142D01*
X134588190Y-115720761D02*
X134731047Y-115768380D01*
X134969142Y-115768380D01*
X135064380Y-115720761D01*
X135112000Y-115673142D01*
X135159619Y-115577904D01*
X135159619Y-115482666D01*
X135112000Y-115387428D01*
X135064380Y-115339809D01*
X134969142Y-115292190D01*
X134778666Y-115244571D01*
X134683428Y-115196952D01*
X134635809Y-115149333D01*
X134588190Y-115054095D01*
X134588190Y-114958857D01*
X134635809Y-114863619D01*
X134683428Y-114816000D01*
X134778666Y-114768380D01*
X135016761Y-114768380D01*
X135159619Y-114816000D01*
X135588190Y-115768380D02*
X135588190Y-114768380D01*
X135683428Y-115387428D02*
X135969142Y-115768380D01*
X135969142Y-115101714D02*
X135588190Y-115482666D01*
X136778666Y-115720761D02*
X136683428Y-115768380D01*
X136492952Y-115768380D01*
X136397714Y-115720761D01*
X136350095Y-115625523D01*
X136350095Y-115244571D01*
X136397714Y-115149333D01*
X136492952Y-115101714D01*
X136683428Y-115101714D01*
X136778666Y-115149333D01*
X136826285Y-115244571D01*
X136826285Y-115339809D01*
X136350095Y-115435047D01*
X136397714Y-114768380D02*
X136445333Y-114816000D01*
X136397714Y-114863619D01*
X136350095Y-114816000D01*
X136397714Y-114768380D01*
X136397714Y-114863619D01*
X136778666Y-114768380D02*
X136826285Y-114816000D01*
X136778666Y-114863619D01*
X136731047Y-114816000D01*
X136778666Y-114768380D01*
X136778666Y-114863619D01*
X137254857Y-115101714D02*
X137254857Y-115768380D01*
X137254857Y-115196952D02*
X137302476Y-115149333D01*
X137397714Y-115101714D01*
X137540571Y-115101714D01*
X137635809Y-115149333D01*
X137683428Y-115244571D01*
X137683428Y-115768380D01*
X138588190Y-115768380D02*
X138588190Y-114768380D01*
X138588190Y-115720761D02*
X138492952Y-115768380D01*
X138302476Y-115768380D01*
X138207238Y-115720761D01*
X138159619Y-115673142D01*
X138112000Y-115577904D01*
X138112000Y-115292190D01*
X138159619Y-115196952D01*
X138207238Y-115149333D01*
X138302476Y-115101714D01*
X138492952Y-115101714D01*
X138588190Y-115149333D01*
X139492952Y-115768380D02*
X139492952Y-115244571D01*
X139445333Y-115149333D01*
X139350095Y-115101714D01*
X139159619Y-115101714D01*
X139064380Y-115149333D01*
X139492952Y-115720761D02*
X139397714Y-115768380D01*
X139159619Y-115768380D01*
X139064380Y-115720761D01*
X139016761Y-115625523D01*
X139016761Y-115530285D01*
X139064380Y-115435047D01*
X139159619Y-115387428D01*
X139397714Y-115387428D01*
X139492952Y-115339809D01*
X139969142Y-115101714D02*
X139969142Y-115958857D01*
X139921523Y-116054095D01*
X139826285Y-116101714D01*
X139778666Y-116101714D01*
X139969142Y-114768380D02*
X139921523Y-114816000D01*
X139969142Y-114863619D01*
X140016761Y-114816000D01*
X139969142Y-114768380D01*
X139969142Y-114863619D01*
X140492952Y-115720761D02*
X140492952Y-115768380D01*
X140445333Y-115863619D01*
X140397714Y-115911238D01*
X141683428Y-115768380D02*
X141683428Y-114768380D01*
X142254857Y-115768380D01*
X142254857Y-114768380D01*
X142731047Y-115768380D02*
X142731047Y-115101714D01*
X142731047Y-114768380D02*
X142683428Y-114816000D01*
X142731047Y-114863619D01*
X142778666Y-114816000D01*
X142731047Y-114768380D01*
X142731047Y-114863619D01*
X143207238Y-115768380D02*
X143207238Y-114768380D01*
X143302476Y-115387428D02*
X143588190Y-115768380D01*
X143588190Y-115101714D02*
X143207238Y-115482666D01*
X144159619Y-115768380D02*
X144064380Y-115720761D01*
X144016761Y-115673142D01*
X143969142Y-115577904D01*
X143969142Y-115292190D01*
X144016761Y-115196952D01*
X144064380Y-115149333D01*
X144159619Y-115101714D01*
X144302476Y-115101714D01*
X144397714Y-115149333D01*
X144445333Y-115196952D01*
X144492952Y-115292190D01*
X144492952Y-115577904D01*
X144445333Y-115673142D01*
X144397714Y-115720761D01*
X144302476Y-115768380D01*
X144159619Y-115768380D01*
X145064380Y-115768380D02*
X144969142Y-115720761D01*
X144921523Y-115625523D01*
X144921523Y-114768380D01*
X146159619Y-115720761D02*
X146302476Y-115768380D01*
X146540571Y-115768380D01*
X146635809Y-115720761D01*
X146683428Y-115673142D01*
X146731047Y-115577904D01*
X146731047Y-115482666D01*
X146683428Y-115387428D01*
X146635809Y-115339809D01*
X146540571Y-115292190D01*
X146350095Y-115244571D01*
X146254857Y-115196952D01*
X146207238Y-115149333D01*
X146159619Y-115054095D01*
X146159619Y-114958857D01*
X146207238Y-114863619D01*
X146254857Y-114816000D01*
X146350095Y-114768380D01*
X146588190Y-114768380D01*
X146731047Y-114816000D01*
X147588190Y-115101714D02*
X147588190Y-115768380D01*
X147159619Y-115101714D02*
X147159619Y-115625523D01*
X147207238Y-115720761D01*
X147302476Y-115768380D01*
X147445333Y-115768380D01*
X147540571Y-115720761D01*
X147588190Y-115673142D01*
X148207238Y-115768380D02*
X148111999Y-115720761D01*
X148064380Y-115625523D01*
X148064380Y-114768380D01*
X149016761Y-115768380D02*
X149016761Y-115244571D01*
X148969142Y-115149333D01*
X148873904Y-115101714D01*
X148683428Y-115101714D01*
X148588190Y-115149333D01*
X149016761Y-115720761D02*
X148921523Y-115768380D01*
X148683428Y-115768380D01*
X148588190Y-115720761D01*
X148540571Y-115625523D01*
X148540571Y-115530285D01*
X148588190Y-115435047D01*
X148683428Y-115387428D01*
X148921523Y-115387428D01*
X149016761Y-115339809D01*
X149492952Y-115101714D02*
X149492952Y-115958857D01*
X149445333Y-116054095D01*
X149350095Y-116101714D01*
X149302476Y-116101714D01*
X149492952Y-114768380D02*
X149445333Y-114816000D01*
X149492952Y-114863619D01*
X149540571Y-114816000D01*
X149492952Y-114768380D01*
X149492952Y-114863619D01*
X150016761Y-115720761D02*
X150016761Y-115768380D01*
X149969142Y-115863619D01*
X149921523Y-115911238D01*
X151540571Y-115244571D02*
X151683428Y-115292190D01*
X151731047Y-115339809D01*
X151778666Y-115435047D01*
X151778666Y-115577904D01*
X151731047Y-115673142D01*
X151683428Y-115720761D01*
X151588190Y-115768380D01*
X151207238Y-115768380D01*
X151207238Y-114768380D01*
X151540571Y-114768380D01*
X151635809Y-114816000D01*
X151683428Y-114863619D01*
X151731047Y-114958857D01*
X151731047Y-115054095D01*
X151683428Y-115149333D01*
X151635809Y-115196952D01*
X151540571Y-115244571D01*
X151207238Y-115244571D01*
X152588190Y-115720761D02*
X152492952Y-115768380D01*
X152302476Y-115768380D01*
X152207238Y-115720761D01*
X152159619Y-115625523D01*
X152159619Y-115244571D01*
X152207238Y-115149333D01*
X152302476Y-115101714D01*
X152492952Y-115101714D01*
X152588190Y-115149333D01*
X152635809Y-115244571D01*
X152635809Y-115339809D01*
X152159619Y-115435047D01*
X153016761Y-115720761D02*
X153111999Y-115768380D01*
X153302476Y-115768380D01*
X153397714Y-115720761D01*
X153445333Y-115625523D01*
X153445333Y-115577904D01*
X153397714Y-115482666D01*
X153302476Y-115435047D01*
X153159619Y-115435047D01*
X153064380Y-115387428D01*
X153016761Y-115292190D01*
X153016761Y-115244571D01*
X153064380Y-115149333D01*
X153159619Y-115101714D01*
X153302476Y-115101714D01*
X153397714Y-115149333D01*
X154302476Y-115768380D02*
X154302476Y-115244571D01*
X154254857Y-115149333D01*
X154159619Y-115101714D01*
X153969142Y-115101714D01*
X153873904Y-115149333D01*
X154302476Y-115720761D02*
X154207238Y-115768380D01*
X153969142Y-115768380D01*
X153873904Y-115720761D01*
X153826285Y-115625523D01*
X153826285Y-115530285D01*
X153873904Y-115435047D01*
X153969142Y-115387428D01*
X154207238Y-115387428D01*
X154302476Y-115339809D01*
X154778666Y-115768380D02*
X154778666Y-115101714D01*
X154778666Y-115292190D02*
X154826285Y-115196952D01*
X154873904Y-115149333D01*
X154969142Y-115101714D01*
X155064380Y-115101714D01*
X156159619Y-115768380D02*
X156159619Y-114768380D01*
X156492952Y-115482666D01*
X156826285Y-114768380D01*
X156826285Y-115768380D01*
X157731047Y-115768380D02*
X157731047Y-115244571D01*
X157683428Y-115149333D01*
X157588190Y-115101714D01*
X157397714Y-115101714D01*
X157302476Y-115149333D01*
X157731047Y-115720761D02*
X157635809Y-115768380D01*
X157397714Y-115768380D01*
X157302476Y-115720761D01*
X157254857Y-115625523D01*
X157254857Y-115530285D01*
X157302476Y-115435047D01*
X157397714Y-115387428D01*
X157635809Y-115387428D01*
X157731047Y-115339809D01*
X158350095Y-115768380D02*
X158254857Y-115720761D01*
X158207238Y-115625523D01*
X158207238Y-114768380D01*
X159159619Y-115101714D02*
X159159619Y-115768380D01*
X158731047Y-115101714D02*
X158731047Y-115625523D01*
X158778666Y-115720761D01*
X158873904Y-115768380D01*
X159016761Y-115768380D01*
X159111999Y-115720761D01*
X159159619Y-115673142D01*
X159635809Y-115768380D02*
X159635809Y-114768380D01*
X159731047Y-115387428D02*
X160016761Y-115768380D01*
X160016761Y-115101714D02*
X159635809Y-115482666D01*
X160873904Y-115768380D02*
X160873904Y-115244571D01*
X160826285Y-115149333D01*
X160731047Y-115101714D01*
X160540571Y-115101714D01*
X160445333Y-115149333D01*
X160873904Y-115720761D02*
X160778666Y-115768380D01*
X160540571Y-115768380D01*
X160445333Y-115720761D01*
X160397714Y-115625523D01*
X160397714Y-115530285D01*
X160445333Y-115435047D01*
X160540571Y-115387428D01*
X160778666Y-115387428D01*
X160873904Y-115339809D01*
X96934285Y-113962571D02*
X96934285Y-112462571D01*
X97505714Y-112462571D01*
X97648571Y-112534000D01*
X97720000Y-112605428D01*
X97791428Y-112748285D01*
X97791428Y-112962571D01*
X97720000Y-113105428D01*
X97648571Y-113176857D01*
X97505714Y-113248285D01*
X96934285Y-113248285D01*
X99077142Y-112962571D02*
X99077142Y-113962571D01*
X98434285Y-112962571D02*
X98434285Y-113748285D01*
X98505714Y-113891142D01*
X98648571Y-113962571D01*
X98862857Y-113962571D01*
X99005714Y-113891142D01*
X99077142Y-113819714D01*
X99791428Y-112962571D02*
X99791428Y-113962571D01*
X99791428Y-113105428D02*
X99862857Y-113034000D01*
X100005714Y-112962571D01*
X100220000Y-112962571D01*
X100362857Y-113034000D01*
X100434285Y-113176857D01*
X100434285Y-113962571D01*
X101791428Y-112962571D02*
X101791428Y-113962571D01*
X101148571Y-112962571D02*
X101148571Y-113748285D01*
X101220000Y-113891142D01*
X101362857Y-113962571D01*
X101577142Y-113962571D01*
X101720000Y-113891142D01*
X101791428Y-113819714D01*
X103148571Y-113962571D02*
X103148571Y-113176857D01*
X103077142Y-113034000D01*
X102934285Y-112962571D01*
X102648571Y-112962571D01*
X102505714Y-113034000D01*
X103148571Y-113891142D02*
X103005714Y-113962571D01*
X102648571Y-113962571D01*
X102505714Y-113891142D01*
X102434285Y-113748285D01*
X102434285Y-113605428D01*
X102505714Y-113462571D01*
X102648571Y-113391142D01*
X103005714Y-113391142D01*
X103148571Y-113319714D01*
X103862857Y-112962571D02*
X103862857Y-113962571D01*
X103862857Y-113105428D02*
X103934285Y-113034000D01*
X104077142Y-112962571D01*
X104291428Y-112962571D01*
X104434285Y-113034000D01*
X104505714Y-113176857D01*
X104505714Y-113962571D01*
X105220000Y-113819714D02*
X105291428Y-113891142D01*
X105220000Y-113962571D01*
X105148571Y-113891142D01*
X105220000Y-113819714D01*
X105220000Y-113962571D01*
X105220000Y-113034000D02*
X105291428Y-113105428D01*
X105220000Y-113176857D01*
X105148571Y-113105428D01*
X105220000Y-113034000D01*
X105220000Y-113176857D01*
X107077142Y-113962571D02*
X107077142Y-112462571D01*
X107577142Y-113534000D01*
X108077142Y-112462571D01*
X108077142Y-113962571D01*
X109434285Y-113962571D02*
X109434285Y-113176857D01*
X109362857Y-113034000D01*
X109220000Y-112962571D01*
X108934285Y-112962571D01*
X108791428Y-113034000D01*
X109434285Y-113891142D02*
X109291428Y-113962571D01*
X108934285Y-113962571D01*
X108791428Y-113891142D01*
X108720000Y-113748285D01*
X108720000Y-113605428D01*
X108791428Y-113462571D01*
X108934285Y-113391142D01*
X109291428Y-113391142D01*
X109434285Y-113319714D01*
X110148571Y-113962571D02*
X110148571Y-112962571D01*
X110148571Y-113248285D02*
X110220000Y-113105428D01*
X110291428Y-113034000D01*
X110434285Y-112962571D01*
X110577142Y-112962571D01*
X110862857Y-112962571D02*
X111434285Y-112962571D01*
X111077142Y-112462571D02*
X111077142Y-113748285D01*
X111148571Y-113891142D01*
X111291428Y-113962571D01*
X111434285Y-113962571D01*
X111934285Y-113962571D02*
X111934285Y-112962571D01*
X111934285Y-112462571D02*
X111862857Y-112534000D01*
X111934285Y-112605428D01*
X112005714Y-112534000D01*
X111934285Y-112462571D01*
X111934285Y-112605428D01*
X112648571Y-112962571D02*
X112648571Y-113962571D01*
X112648571Y-113105428D02*
X112720000Y-113034000D01*
X112862857Y-112962571D01*
X113077142Y-112962571D01*
X113220000Y-113034000D01*
X113291428Y-113176857D01*
X113291428Y-113962571D01*
X115148571Y-113962571D02*
X115148571Y-112462571D01*
X116005714Y-113962571D02*
X115362857Y-113105428D01*
X116005714Y-112462571D02*
X115148571Y-113319714D01*
X116862857Y-113962571D02*
X116720000Y-113891142D01*
X116648571Y-113748285D01*
X116648571Y-112462571D01*
X117648571Y-113962571D02*
X117505714Y-113891142D01*
X117434285Y-113748285D01*
X117434285Y-112462571D01*
X118791428Y-113891142D02*
X118648571Y-113962571D01*
X118362857Y-113962571D01*
X118220000Y-113891142D01*
X118148571Y-113748285D01*
X118148571Y-113176857D01*
X118220000Y-113034000D01*
X118362857Y-112962571D01*
X118648571Y-112962571D01*
X118791428Y-113034000D01*
X118862857Y-113176857D01*
X118862857Y-113319714D01*
X118148571Y-113462571D01*
X120148571Y-113891142D02*
X120005714Y-113962571D01*
X119720000Y-113962571D01*
X119577142Y-113891142D01*
X119505714Y-113819714D01*
X119434285Y-113676857D01*
X119434285Y-113248285D01*
X119505714Y-113105428D01*
X119577142Y-113034000D01*
X119720000Y-112962571D01*
X120005714Y-112962571D01*
X120148571Y-113034000D01*
X119862857Y-114034000D02*
X120005714Y-114105428D01*
X120077142Y-114248285D01*
X120005714Y-114391142D01*
X119862857Y-114462571D01*
X119648571Y-114462571D01*
X120791428Y-113962571D02*
X120791428Y-112962571D01*
X120791428Y-112462571D02*
X120720000Y-112534000D01*
X120791428Y-112605428D01*
X120862857Y-112534000D01*
X120791428Y-112462571D01*
X120791428Y-112605428D01*
X121577142Y-113891142D02*
X121577142Y-113962571D01*
X121505714Y-114105428D01*
X121434285Y-114176857D01*
%LPC*%
D15*
G36*
X88049100Y-102557580D02*
G01*
X86347310Y-102557580D01*
X86347310Y-101556830D01*
X88049100Y-101556830D01*
X88049100Y-102557580D01*
G37*
G36*
X111876840Y-71399410D02*
G01*
X109976930Y-71399410D01*
X109976930Y-68696840D01*
X111876840Y-68696840D01*
X111876840Y-71399410D01*
G37*
D19*
X87548220Y-104597200D02*
X86848220Y-104597200D01*
D20*
X155870610Y-69585340D02*
G75*
G03*
X155870610Y-69585340I-600400J0D01*
G01*
D21*
X87858610Y-86436200D02*
G75*
G03*
X87858610Y-86436200I-406400J0D01*
G01*
D22*
X118757650Y-80544420D02*
G75*
G03*
X118757650Y-80544420I-425400J0D01*
G01*
X108137410Y-94260420D02*
G75*
G03*
X108137410Y-94260420I-425400J0D01*
G01*
D15*
G36*
X145618210Y-89941410D02*
G01*
X144094210Y-89941410D01*
X144094210Y-88417410D01*
X145618210Y-88417410D01*
X145618210Y-89941410D01*
G37*
D21*
X102873560Y-101168200D02*
G75*
G03*
X102873560Y-101168200I-406400J0D01*
G01*
D15*
G36*
X145618210Y-84963000D02*
G01*
X144094210Y-84963000D01*
X144094210Y-83439000D01*
X145618210Y-83439000D01*
X145618210Y-84963000D01*
G37*
D19*
X87548220Y-95707200D02*
X86848220Y-95707200D01*
D22*
X133640790Y-95199200D02*
G75*
G03*
X133640790Y-95199200I-425400J0D01*
G01*
D19*
X87548220Y-112217200D02*
X86848220Y-112217200D01*
D15*
G36*
X145618210Y-87452200D02*
G01*
X144094210Y-87452200D01*
X144094210Y-85928200D01*
X145618210Y-85928200D01*
X145618210Y-87452200D01*
G37*
D22*
X123140680Y-95199200D02*
G75*
G03*
X123140680Y-95199200I-425400J0D01*
G01*
D23*
X113467140Y-69648130D02*
X113467140Y-70448120D01*
X116047270Y-69658030D02*
X116047270Y-70458030D01*
D24*
X103188550Y-86182200D02*
G75*
G03*
X103188550Y-86182200I-325400J0D01*
G01*
D25*
X123907610Y-102184200D02*
G75*
G03*
X123907610Y-102184200I-450400J0D01*
G01*
D24*
X98782660Y-77800200D02*
G75*
G03*
X98782660Y-77800200I-325400J0D01*
G01*
D15*
G36*
X88049100Y-110177580D02*
G01*
X86347310Y-110177580D01*
X86347310Y-109176830D01*
X88049100Y-109176830D01*
X88049100Y-110177580D01*
G37*
D21*
X87858610Y-88976200D02*
G75*
G03*
X87858610Y-88976200I-406400J0D01*
G01*
D22*
X110557520Y-80544420D02*
G75*
G03*
X110557520Y-80544420I-425400J0D01*
G01*
D19*
X87548220Y-110947200D02*
X86848220Y-110947200D01*
D26*
X130137610Y-71577200D02*
G75*
G03*
X130137610Y-71577200I-775400J0D01*
G01*
D27*
X127934610Y-85563210D02*
G75*
G03*
X127934610Y-85563210I-350400J0D01*
G01*
D22*
X108518410Y-101499420D02*
G75*
G03*
X108518410Y-101499420I-425400J0D01*
G01*
D24*
X103442550Y-108915200D02*
G75*
G03*
X103442550Y-108915200I-325400J0D01*
G01*
D21*
X87731610Y-80213200D02*
G75*
G03*
X87731610Y-80213200I-406400J0D01*
G01*
D24*
X95988660Y-93802200D02*
G75*
G03*
X95988660Y-93802200I-325400J0D01*
G01*
D27*
X127934610Y-79943200D02*
G75*
G03*
X127934610Y-79943200I-350400J0D01*
G01*
D24*
X96242660Y-108915200D02*
G75*
G03*
X96242660Y-108915200I-325400J0D01*
G01*
X105982550Y-77800200D02*
G75*
G03*
X105982550Y-77800200I-325400J0D01*
G01*
D19*
X87548220Y-96977200D02*
X86848220Y-96977200D01*
D22*
X108264410Y-107722420D02*
G75*
G03*
X108264410Y-107722420I-425400J0D01*
G01*
D24*
X103188550Y-93802200D02*
G75*
G03*
X103188550Y-93802200I-325400J0D01*
G01*
D21*
X87731610Y-82753200D02*
G75*
G03*
X87731610Y-82753200I-406400J0D01*
G01*
D24*
X95988660Y-86182200D02*
G75*
G03*
X95988660Y-86182200I-325400J0D01*
G01*
D20*
X155870610Y-74585330D02*
G75*
G03*
X155870610Y-74585330I-600400J0D01*
G01*
D22*
X118764510Y-107722420D02*
G75*
G03*
X118764510Y-107722420I-425400J0D01*
G01*
D26*
X145377610Y-71577200D02*
G75*
G03*
X145377610Y-71577200I-775400J0D01*
G01*
D20*
X91100610Y-74585330D02*
G75*
G03*
X91100610Y-74585330I-600400J0D01*
G01*
D28*
X121100600Y-87402420D02*
G75*
G03*
X121100600Y-87402420I-495300J0D01*
G01*
D27*
X127934610Y-87563200D02*
G75*
G03*
X127934610Y-87563200I-350400J0D01*
G01*
X127934610Y-77943210D02*
G75*
G03*
X127934610Y-77943210I-350400J0D01*
G01*
D28*
X108100370Y-87402420D02*
G75*
G03*
X108100370Y-87402420I-495300J0D01*
G01*
D22*
X119018510Y-101499420D02*
G75*
G03*
X119018510Y-101499420I-425400J0D01*
G01*
D20*
X91100610Y-69585340D02*
G75*
G03*
X91100610Y-69585340I-600400J0D01*
G01*
D19*
X87548220Y-103327200D02*
X86848220Y-103327200D01*
D22*
X118637510Y-94260420D02*
G75*
G03*
X118637510Y-94260420I-425400J0D01*
G01*
D21*
X96973650Y-101168200D02*
G75*
G03*
X96973650Y-101168200I-406400J0D01*
G01*
D15*
G36*
X88049100Y-94937580D02*
G01*
X86347310Y-94937580D01*
X86347310Y-93936830D01*
X88049100Y-93936830D01*
X88049100Y-94937580D01*
G37*
D25*
X131907600Y-102184200D02*
G75*
G03*
X131907600Y-102184200I-450400J0D01*
G01*
M02*
